<?xml version="1.0" encoding="UTF-8"?>
<svg version="1.1" xmlns="http://www.w3.org/2000/svg" width="258" height="238">
<path d="M0 0 C85.14 0 170.28 0 258 0 C258 78.54 258 157.08 258 238 C172.86 238 87.72 238 0 238 C0 159.46 0 80.92 0 0 Z " fill="#FEFEFE" transform="translate(0,0)"/>
<path d="M0 0 C1.45792969 1.16208984 1.45792969 1.16208984 2.9453125 2.34765625 C9.10875631 7.29611309 13.51443077 10.88943878 17 18 C17.680625 19.010625 18.36125 20.02125 19.0625 21.0625 C22.57830103 26.39290802 23.60683887 31.6152233 24.625 37.8125 C24.82609375 38.99489258 24.82609375 38.99489258 25.03125 40.20117188 C25.3591229 42.13328006 25.68024237 44.0665322 26 46 C26.58007812 46.18175781 27.16015625 46.36351562 27.7578125 46.55078125 C38.75399033 50.0891553 46.8853499 54.9815342 53 65 C53.66796875 67.24609375 53.66796875 67.24609375 54 69 C54.66 69 55.32 69 56 69 C60.44784683 80.01371595 60.8572154 91.53563057 56.375 102.5 C49.92643621 115.69636487 41.10033618 123.32252752 27.44860458 128.91262436 C21.48818822 130.79199655 15.66139501 130.69527036 9.45751953 130.64697266 C8.04004806 130.65376619 6.62258543 130.66267897 5.20513916 130.67352295 C1.39075736 130.6961217 -2.42294061 130.68756056 -6.23733282 130.67162752 C-10.25330123 130.65886166 -14.26921576 130.67073847 -18.28518677 130.67855835 C-25.02828344 130.68762621 -31.77110532 130.67574492 -38.51416016 130.65185547 C-46.27601719 130.62467164 -54.03721682 130.63344964 -61.79905784 130.6609875 C-68.49675974 130.68378626 -75.19426541 130.68682579 -81.89199364 130.67379415 C-85.87742429 130.66605552 -89.86254753 130.66480133 -93.84795761 130.68147659 C-97.59941362 130.69607946 -101.35003505 130.68561709 -105.10140228 130.65700531 C-107.10961303 130.64739895 -109.11789562 130.66196019 -111.12606812 130.67764282 C-120.39421261 130.5714368 -127.48279772 128.58523797 -136 125 C-137.23715917 124.50443824 -137.23715917 124.50443824 -138.49931145 123.99886513 C-143.36138133 121.8571249 -145.23195283 119.41157518 -148 115 C-150.00202511 113.14671973 -152.0692175 111.4198365 -154.1953125 109.7109375 C-160.61080186 103.62872032 -160.06904688 92.43420929 -160.3918457 84.16259766 C-160.5519027 75.92351371 -159.81457516 69.93298823 -155 63 C-154.4225 62.0925 -153.845 61.185 -153.25 60.25 C-148.29249594 52.7282697 -148.29249594 52.7282697 -144 51 C-144 50.34 -144 49.68 -144 49 C-143.1028125 48.8453125 -143.1028125 48.8453125 -142.1875 48.6875 C-139.91889034 48.15981013 -139.91889034 48.15981013 -138.4375 46.4375 C-137.963125 45.963125 -137.48875 45.48875 -137 45 C-136.01 45 -135.02 45 -134 45 C-133.73832031 43.98292969 -133.47664063 42.96585938 -133.20703125 41.91796875 C-132.12161288 38.13186939 -130.54518546 34.79308584 -128.6875 31.3125 C-127.82705078 29.66701172 -127.82705078 29.66701172 -126.94921875 27.98828125 C-122.87445973 21.7414062 -116.24426306 18.10719906 -109.125 16.25 C-101.07721643 15.60617731 -93.86435943 16.12593988 -86 18 C-85.6596875 17.443125 -85.319375 16.88625 -84.96875 16.3125 C-75.83724928 1.93524355 -75.83724928 1.93524355 -69.8203125 0.46875 C-69.21960938 0.3140625 -68.61890625 0.159375 -68 0 C-67.67 -0.99 -67.34 -1.98 -67 -3 C-64.31664839 -4.35798347 -61.72239153 -5.51947536 -58.9375 -6.625 C-58.19822266 -6.93695313 -57.45894531 -7.24890625 -56.69726562 -7.5703125 C-38.5950473 -14.91889457 -15.040924 -12.64917051 0 0 Z " fill="#6FB8F4" transform="translate(178,57)"/>
<path d="M0 0 C14.43708044 -0.42462001 27.1281469 1.64491083 38.484375 11.1953125 C39.94230469 12.35740234 39.94230469 12.35740234 41.4296875 13.54296875 C47.59313131 18.49142559 51.99880577 22.08475128 55.484375 29.1953125 C56.165 30.2059375 56.845625 31.2165625 57.546875 32.2578125 C61.06267603 37.58822052 62.09121387 42.8105358 63.109375 49.0078125 C63.31046875 50.19020508 63.31046875 50.19020508 63.515625 51.39648438 C63.8434979 53.32859256 64.16461737 55.2618447 64.484375 57.1953125 C65.06445312 57.37707031 65.64453125 57.55882812 66.2421875 57.74609375 C77.23836533 61.2844678 85.3697249 66.1768467 91.484375 76.1953125 C92.15234375 78.44140625 92.15234375 78.44140625 92.484375 80.1953125 C93.144375 80.1953125 93.804375 80.1953125 94.484375 80.1953125 C98.93222183 91.20902845 99.3415904 102.73094307 94.859375 113.6953125 C91.09183642 121.46917731 86.72763696 128.3171973 79.484375 133.1953125 C75.609375 134.0078125 75.609375 134.0078125 72.484375 134.1953125 C74.15104167 132.52864583 75.81770833 130.86197917 77.484375 129.1953125 C77.484375 128.5353125 77.484375 127.8753125 77.484375 127.1953125 C78.24105469 126.98132813 78.99773437 126.76734375 79.77734375 126.546875 C83.26955246 124.80329028 84.06910704 123.02584842 85.796875 119.5703125 C86.30863281 118.56742187 86.82039063 117.56453125 87.34765625 116.53125 C87.72277344 115.76039063 88.09789062 114.98953125 88.484375 114.1953125 C89.474375 114.1953125 90.464375 114.1953125 91.484375 114.1953125 C91.62875 113.1846875 91.773125 112.1740625 91.921875 111.1328125 C92.25947786 108.76959245 92.64120406 106.41116719 93.109375 104.0703125 C93.92490871 95.64313087 92.86632415 87.2939396 90.484375 79.1953125 C88.834375 78.8653125 87.184375 78.5353125 85.484375 78.1953125 C85.484375 76.2153125 85.484375 74.2353125 85.484375 72.1953125 C82.844375 71.8653125 80.204375 71.5353125 77.484375 71.1953125 C77.979375 69.7103125 77.979375 69.7103125 78.484375 68.1953125 C75.1348686 66.16648969 75.1348686 66.16648969 71.484375 65.1953125 C69.999375 64.7003125 69.999375 64.7003125 68.484375 64.1953125 C67.81770833 62.86197917 67.15104167 61.52864583 66.484375 60.1953125 C65.824375 60.1953125 65.164375 60.1953125 64.484375 60.1953125 C64.814375 61.1853125 65.144375 62.1753125 65.484375 63.1953125 C64.92578125 65.23828125 64.92578125 65.23828125 64.046875 67.3828125 C63.75941406 68.09824219 63.47195312 68.81367187 63.17578125 69.55078125 C62.94761719 70.09347656 62.71945313 70.63617188 62.484375 71.1953125 C61.484375 69.1953125 61.484375 69.1953125 62.109375 65.6328125 C62.72339646 61.37303861 61.76731104 58.5417616 60.25390625 54.58203125 C58.95310431 50.54756432 58.73936762 46.40708708 58.484375 42.1953125 C57.164375 42.1953125 55.844375 42.1953125 54.484375 42.1953125 C54.38125 41.1434375 54.278125 40.0915625 54.171875 39.0078125 C53.49465565 35.25232337 52.5856026 33.30512934 50.484375 30.1953125 C50.13375 29.4528125 49.783125 28.7103125 49.421875 27.9453125 C48.60433915 26.01477965 48.60433915 26.01477965 46.484375 25.1953125 C46.2575 24.3909375 46.030625 23.5865625 45.796875 22.7578125 C45.36375 21.9121875 44.930625 21.0665625 44.484375 20.1953125 C43.329375 19.9065625 42.174375 19.6178125 40.984375 19.3203125 C39.829375 18.9490625 38.674375 18.5778125 37.484375 18.1953125 C36.046875 14.5703125 36.046875 14.5703125 35.484375 11.1953125 C34.741875 11.4428125 33.999375 11.6903125 33.234375 11.9453125 C32.326875 12.0278125 31.419375 12.1103125 30.484375 12.1953125 C28.296875 10.2578125 28.296875 10.2578125 26.484375 8.1953125 C25.824375 8.1953125 25.164375 8.1953125 24.484375 8.1953125 C24.484375 7.5353125 24.484375 6.8753125 24.484375 6.1953125 C23.494375 6.1953125 22.504375 6.1953125 21.484375 6.1953125 C21.154375 6.8553125 20.824375 7.5153125 20.484375 8.1953125 C20.484375 7.5353125 20.484375 6.8753125 20.484375 6.1953125 C19.824375 6.1953125 19.164375 6.1953125 18.484375 6.1953125 C17.989375 5.2053125 17.989375 5.2053125 17.484375 4.1953125 C16.494375 4.5253125 15.504375 4.8553125 14.484375 5.1953125 C13.824375 4.8653125 13.164375 4.5353125 12.484375 4.1953125 C8.94265522 4.02861932 8.94265522 4.02861932 5.484375 4.1953125 C5.154375 4.5253125 4.824375 4.8553125 4.484375 5.1953125 C1.81378649 5.33646411 -0.83994738 5.23778357 -3.515625 5.1953125 C-3.515625 4.5353125 -3.515625 3.8753125 -3.515625 3.1953125 C-5.0625 3.8759375 -5.0625 3.8759375 -6.640625 4.5703125 C-8.99229805 5.58699539 -11.24859873 6.42526504 -13.703125 7.1953125 C-16.52596304 8.19898825 -18.17729722 9.36849392 -20.515625 11.1953125 C-26.07118056 14.1953125 -26.07118056 14.1953125 -28.515625 14.1953125 C-28.328125 12.3203125 -28.328125 12.3203125 -27.515625 10.1953125 C-25.203125 9.0703125 -25.203125 9.0703125 -22.515625 8.1953125 C-21.814375 7.8240625 -21.113125 7.4528125 -20.390625 7.0703125 C-18.515625 6.1953125 -18.515625 6.1953125 -15.515625 6.1953125 C-15.515625 5.5353125 -15.515625 4.8753125 -15.515625 4.1953125 C-11.305557 -0.190175 -5.65998345 0.31444353 0 0 Z " fill="#6191DB" transform="translate(139.515625,45.8046875)"/>
<path d="M0 0 C-0.33 0.99 -0.66 1.98 -1 3 C-3.64 3 -6.28 3 -9 3 C-9 2.01 -9 1.02 -9 0 C-10.56365584 0.28540514 -12.12588434 0.57863498 -13.6875 0.875 C-14.99267578 1.11863281 -14.99267578 1.11863281 -16.32421875 1.3671875 C-25.5538756 3.54996766 -34.2420371 10.52020253 -40 18 C-40 18.99 -40 19.98 -40 21 C-35.05 21 -30.1 21 -25 21 C-25 21.33 -25 21.66 -25 22 C-25.80824219 22.10957031 -26.61648437 22.21914062 -27.44921875 22.33203125 C-28.51785156 22.49058594 -29.58648437 22.64914063 -30.6875 22.8125 C-31.74324219 22.96332031 -32.79898438 23.11414063 -33.88671875 23.26953125 C-38.11353816 24.2612693 -40.94452975 25.94452975 -44 29 C-44.24253813 31.21072977 -44.24253813 31.21072977 -44.125 33.625 C-44.09792969 34.85089844 -44.09792969 34.85089844 -44.0703125 36.1015625 C-44.04710938 36.72804687 -44.02390625 37.35453125 -44 38 C-44.28875 37.401875 -44.5775 36.80375 -44.875 36.1875 C-46.04742026 33.80672208 -46.04742026 33.80672208 -48 31 C-49.7329124 32.23303383 -51.46461549 33.46783662 -53.1875 34.71484375 C-54.5079129 35.65108479 -55.86883281 36.53095338 -57.25 37.375 C-59.84255453 39.78237206 -60.65871334 42.75855723 -62 46 C-62.680625 46.763125 -63.36125 47.52625 -64.0625 48.3125 C-68.19779224 54.04855053 -68.23509435 62.11584912 -69 69 C-68.34 69 -67.68 69 -67 69 C-67.226875 69.99 -67.45375 70.98 -67.6875 72 C-68.27786013 75.94105273 -67.24249436 78.5362859 -65.703125 82.1328125 C-64.81814008 84.48293912 -64.7669235 86.51385065 -65 89 C-64.34 89 -63.68 89 -63 89 C-62.67 89.99 -62.34 90.98 -62 92 C-61.01 92.66 -60.02 93.32 -59 94 C-59.33 94.99 -59.66 95.98 -60 97 C-61.29854721 95.92492371 -62.58858361 94.83956264 -63.875 93.75 C-64.59429687 93.14671875 -65.31359375 92.5434375 -66.0546875 91.921875 C-72.93022421 85.12917608 -72.26075019 72.91086177 -72.4375 63.8125 C-72.43980415 56.4192545 -71.28540421 51.17098207 -67 45 C-66.4225 44.0925 -65.845 43.185 -65.25 42.25 C-60.29249594 34.7282697 -60.29249594 34.7282697 -56 33 C-56 32.34 -56 31.68 -56 31 C-55.1028125 30.8453125 -55.1028125 30.8453125 -54.1875 30.6875 C-51.91889034 30.15981013 -51.91889034 30.15981013 -50.4375 28.4375 C-49.963125 27.963125 -49.48875 27.48875 -49 27 C-48.01 27 -47.02 27 -46 27 C-45.73832031 25.98292969 -45.47664063 24.96585938 -45.20703125 23.91796875 C-44.12161288 20.13186939 -42.54518546 16.79308584 -40.6875 13.3125 C-39.82705078 11.66701172 -39.82705078 11.66701172 -38.94921875 9.98828125 C-34.87445973 3.7414062 -28.24426306 0.10719906 -21.125 -1.75 C-13.65886601 -2.34729072 -7.20786144 -2.13566265 0 0 Z " fill="#A7D6E9" transform="translate(90,75)"/>
<path d="M0 0 C1.6254308 0.14095064 3.25034051 0.28792087 4.875 0.4375 C5.77992187 0.51871094 6.68484375 0.59992188 7.6171875 0.68359375 C10 1 10 1 12 2 C13.88071101 2.15471759 15.76644699 2.25003739 17.65234375 2.31640625 C18.8134668 2.35838135 19.97458984 2.40035645 21.17089844 2.44360352 C23.03536621 2.50245728 23.03536621 2.50245728 24.9375 2.5625 C26.1946582 2.6049585 27.45181641 2.64741699 28.74707031 2.69116211 C38.83470985 3.01098584 48.90854191 3.11185114 59 3 C59 3.66 59 4.32 59 5 C90.35 5 121.7 5 154 5 C154 5.33 154 5.66 154 6 C135.10215521 6.07014061 116.20433691 6.12301292 97.30638885 6.15543652 C88.53136336 6.17089279 79.75641883 6.19195857 70.98144531 6.22631836 C63.33146945 6.25625871 55.68155224 6.27558401 48.03151941 6.28226548 C43.98242079 6.2861699 39.93348994 6.29531987 35.88444519 6.31719017 C32.06939201 6.33762867 28.25457493 6.34381902 24.4394722 6.33932304 C23.04311971 6.34014496 21.64675891 6.34606676 20.25045395 6.35761642 C12.80899293 6.41612388 6.77407786 6.22544864 0 3 C0 2.01 0 1.02 0 0 Z " fill="#AAD6EB" transform="translate(48,181)"/>
<path d="M0 0 C1.35717167 4.071515 0.48923319 6.00614737 -1 10 C-2.27119984 11.43009982 -3.54290934 12.85982648 -4.828125 14.27734375 C-7.18534798 17.74246153 -7.46232634 21.9236834 -8 26 C-8.11085938 26.79921875 -8.22171875 27.5984375 -8.3359375 28.421875 C-8.57953292 30.27846713 -8.79321647 32.13894825 -9 34 C-8.34 34 -7.68 34 -7 34 C-7.226875 34.99 -7.45375 35.98 -7.6875 37 C-8.27786013 40.94105273 -7.24249436 43.5362859 -5.703125 47.1328125 C-4.81814008 49.48293912 -4.7669235 51.51385065 -5 54 C-4.34 54 -3.68 54 -3 54 C-2.67 54.99 -2.34 55.98 -2 57 C-1.01 57.66 -0.02 58.32 1 59 C0.67 59.99 0.34 60.98 0 62 C-1.29854721 60.92492371 -2.58858361 59.83956264 -3.875 58.75 C-4.59429688 58.14671875 -5.31359375 57.5434375 -6.0546875 56.921875 C-12.93022421 50.12917608 -12.26075019 37.91086177 -12.4375 28.8125 C-12.4398005 21.43095373 -11.30046838 16.15265031 -7 10 C-6.37609375 9.06929687 -5.7521875 8.13859375 -5.109375 7.1796875 C-3.44676093 4.75335234 -1.74686044 2.36606457 0 0 Z " fill="#B3DAEB" transform="translate(30,110)"/>
<path d="M0 0 C-1.20556604 0.63032133 -2.41463189 1.2539497 -3.625 1.875 C-4.29789062 2.22304687 -4.97078125 2.57109375 -5.6640625 2.9296875 C-11.78338514 5.7335243 -16.86312504 6.28147059 -23.49365234 6.22705078 C-24.89948074 6.22748886 -24.89948074 6.22748886 -26.33370972 6.22793579 C-29.41788127 6.22654738 -32.50180838 6.21100909 -35.5859375 6.1953125 C-37.72970447 6.19158064 -39.87347315 6.18873448 -42.01724243 6.18673706 C-47.64952331 6.17911427 -53.28170044 6.15947735 -58.91394043 6.1373291 C-64.66526893 6.11684153 -70.41661425 6.10772911 -76.16796875 6.09765625 C-87.44535799 6.07623023 -98.72267035 6.04211059 -110 6 C-110 5.67 -110 5.34 -110 5 C-109.24563156 4.98969254 -108.49126312 4.97938507 -107.71403503 4.96876526 C-100.46733809 4.8691834 -93.22069384 4.76650032 -85.97408581 4.66066074 C-82.25203127 4.60639929 -78.52996904 4.55317885 -74.80786133 4.50268555 C-59.80146162 4.29830861 -44.79986234 4.05675647 -29.80078125 3.52734375 C-28.15495308 3.47170006 -28.15495308 3.47170006 -26.47587585 3.41493225 C-16.76827844 3.40061528 -16.76827844 3.40061528 -8 0 C-2.47887324 -1.23943662 -2.47887324 -1.23943662 0 0 Z " fill="#71B2DB" transform="translate(217,180)"/>
<path d="M0 0 C0.66 0.33 1.32 0.66 2 1 C1.01 1.33 0.02 1.66 -1 2 C-1 2.66 -1 3.32 -1 4 C-5.0188515 5.81242323 -8.61110675 7.33501617 -13 8 C-13.33 8.99 -13.66 9.98 -14 11 C-14.763125 11.556875 -15.52625 12.11375 -16.3125 12.6875 C-18.90652455 14.91956764 -19.63960323 16.00712711 -21 19 C-22.69450487 22.72099436 -24.61936635 24.6244196 -28 27 C-28.33 27.66 -28.66 28.32 -29 29 C-30.65 29 -32.3 29 -34 29 C-34 29.66 -34 30.32 -34 31 C-34.66 31 -35.32 31 -36 31 C-36 30.01 -36 29.02 -36 28 C-35.38640625 27.74476562 -34.7728125 27.48953125 -34.140625 27.2265625 C-31.70130442 25.82884961 -31.05672375 24.82266912 -29.75 22.375 C-26.91359369 17.57155031 -23.36959443 13.48351365 -19 10 C-18.27941406 9.82339844 -17.55882813 9.64679687 -16.81640625 9.46484375 C-16.21699219 9.31144531 -15.61757812 9.15804687 -15 9 C-14.67 8.01 -14.34 7.02 -14 6 C-11.68535803 4.77098656 -9.47649927 3.73569643 -7.0625 2.75 C-6.41603516 2.46898437 -5.76957031 2.18796875 -5.10351562 1.8984375 C-3.42977885 1.19626756 -1.71621654 0.59079454 0 0 Z " fill="#8EBEDF" transform="translate(125,48)"/>
<path d="M0 0 C0.66 0 1.32 0 2 0 C2 1.32 2 2.64 2 4 C2.66 4 3.32 4 4 4 C5.47969145 8.43907434 5.26558625 12.7867836 5.3125 17.4375 C5.34150391 18.39205078 5.37050781 19.34660156 5.40039062 20.33007812 C5.46502778 27.43519264 5.46502778 27.43519264 3.015625 30.41015625 C2.35046875 30.93480469 1.6853125 31.45945313 1 32 C0.42468606 33.97976724 0.42468606 33.97976724 0.4375 36 C0.16091337 39.54952836 -0.52650052 41.32862056 -3 44 C-3.66 44.99 -4.32 45.98 -5 47 C-5 46.34 -5 45.68 -5 45 C-5.66 45 -6.32 45 -7 45 C-7 45.66 -7 46.32 -7 47 C-7.66 46.67 -8.32 46.34 -9 46 C-8.31164062 44.98292969 -8.31164062 44.98292969 -7.609375 43.9453125 C0.69676849 31.34649821 3.83290349 21.03813734 1.5390625 5.97265625 C1.10113809 3.96391602 0.5648052 1.9768182 0 0 Z " fill="#E4F3FE" transform="translate(234,127)"/>
<path d="M0 0 C0.99 0.33 1.98 0.66 3 1 C0.79394719 3.26790476 -1.52558972 5.32881124 -3.9375 7.375 C-8.89268188 11.69606354 -12.43553759 16.52600415 -16 22 C-16.55945313 21.855625 -17.11890625 21.71125 -17.6953125 21.5625 C-25.16479903 19.83322981 -32.35996753 19.80184354 -40 20 C-38 18 -38 18 -35.66162109 17.77294922 C-34.70852051 17.78342285 -33.75541992 17.79389648 -32.7734375 17.8046875 C-31.2265625 17.81435547 -31.2265625 17.81435547 -29.6484375 17.82421875 C-28.02808594 17.84935547 -28.02808594 17.84935547 -26.375 17.875 C-25.28703125 17.88402344 -24.1990625 17.89304687 -23.078125 17.90234375 C-20.38519848 17.92596591 -17.69270745 17.95890444 -15 18 C-15 17.01 -15 16.02 -15 15 C-14.34 15 -13.68 15 -13 15 C-13.07863281 14.25363281 -13.15726563 13.50726563 -13.23828125 12.73828125 C-13 10 -13 10 -11.35546875 7.98046875 C-10.64003906 7.38878906 -9.92460938 6.79710937 -9.1875 6.1875 C-8.12595703 5.28064453 -8.12595703 5.28064453 -7.04296875 4.35546875 C-5 3 -5 3 -2 3 C-2 2.34 -2 1.68 -2 1 C-1.34 0.67 -0.68 0.34 0 0 Z " fill="#E3F9FD" transform="translate(108,54)"/>
<path d="M0 0 C0.68932617 -0.00475342 1.37865234 -0.00950684 2.08886719 -0.0144043 C5.78900545 -0.00230941 9.21518876 0.24488113 12.8125 1.125 C12.8125 1.455 12.8125 1.785 12.8125 2.125 C11.85996338 2.14687378 11.85996338 2.14687378 10.88818359 2.16918945 C7.98736919 2.24405089 5.08765794 2.34058426 2.1875 2.4375 C0.68896484 2.47133789 0.68896484 2.47133789 -0.83984375 2.50585938 C-6.38875743 2.70797212 -10.33996916 3.16007941 -15.1875 6.125 C-16.21875 6.455 -17.25 6.785 -18.3125 7.125 C-21.18434217 8.12390162 -22.81740501 9.27336329 -25.1875 11.125 C-30.74305556 14.125 -30.74305556 14.125 -33.1875 14.125 C-33 12.25 -33 12.25 -32.1875 10.125 C-29.875 9 -29.875 9 -27.1875 8.125 C-26.48625 7.75375 -25.785 7.3825 -25.0625 7 C-23.1875 6.125 -23.1875 6.125 -20.1875 6.125 C-20.1875 5.465 -20.1875 4.805 -20.1875 4.125 C-15.11815069 -1.1555722 -6.75635874 0.03903198 0 0 Z " fill="#71A4D5" transform="translate(144.1875,45.875)"/>
<path d="M0 0 C5.61 0 11.22 0 17 0 C17 0.33 17 0.66 17 1 C15.78763672 1.16435547 15.78763672 1.16435547 14.55078125 1.33203125 C12.94783203 1.56986328 12.94783203 1.56986328 11.3125 1.8125 C10.25675781 1.96332031 9.20101562 2.11414063 8.11328125 2.26953125 C3.88646184 3.2612693 1.05547025 4.94452975 -2 8 C-2.24253813 10.21072977 -2.24253813 10.21072977 -2.125 12.625 C-2.09792969 13.85089844 -2.09792969 13.85089844 -2.0703125 15.1015625 C-2.04710937 15.72804688 -2.02390625 16.35453125 -2 17 C-2.28875 16.401875 -2.5775 15.80375 -2.875 15.1875 C-4.04742026 12.80672208 -4.04742026 12.80672208 -6 10 C-6.45890625 10.33773437 -6.9178125 10.67546875 -7.390625 11.0234375 C-13.48506151 15.45342707 -13.48506151 15.45342707 -17 17 C-16.67 15.35 -16.34 13.7 -16 12 C-15.34 12 -14.68 12 -14 12 C-14 11.34 -14 10.68 -14 10 C-13.401875 9.896875 -12.80375 9.79375 -12.1875 9.6875 C-9.91889034 9.15981013 -9.91889034 9.15981013 -8.4375 7.4375 C-7.963125 6.963125 -7.48875 6.48875 -7 6 C-6.01 6 -5.02 6 -4 6 C-3.67 5.01 -3.34 4.02 -3 3 C-2.01 3 -1.02 3 0 3 C0 2.01 0 1.02 0 0 Z " fill="#A0D5EE" transform="translate(48,96)"/>
<path d="M0 0 C0.53939209 0.15847412 1.07878418 0.31694824 1.63452148 0.48022461 C4.40368304 1.08870278 7.01339734 1.21564933 9.84765625 1.31640625 C11.00233398 1.35838135 12.15701172 1.40035645 13.34667969 1.44360352 C14.57290039 1.48283936 15.79912109 1.5220752 17.0625 1.5625 C18.93470215 1.62618774 18.93470215 1.62618774 20.84472656 1.69116211 C30.89983309 2.01224846 40.94102227 2.11149113 51 2 C51 2.66 51 3.32 51 4 C45.00431618 4.02480236 39.00866254 4.04290845 33.01293945 4.05493164 C30.97517374 4.05994639 28.9374116 4.0667598 26.8996582 4.07543945 C23.96304439 4.08763052 21.02647834 4.09325702 18.08984375 4.09765625 C17.18540024 4.10281754 16.28095673 4.10797882 15.34910583 4.11329651 C10.45452139 4.1137262 5.82549889 3.8305951 1 3 C0.67 2.01 0.34 1.02 0 0 Z " fill="#82C7E7" transform="translate(56,182)"/>
<path d="M0 0 C0.495 1.485 0.495 1.485 1 3 C-0.155 2.835 -1.31 2.67 -2.5 2.5 C-12.90193268 1.34970729 -23.6388646 1.60523177 -34 3 C-34 2.34 -34 1.68 -34 1 C-28.70080195 -1.11967922 -23.7549362 -1.49067159 -18.125 -1.75 C-16.83529297 -1.83314453 -16.83529297 -1.83314453 -15.51953125 -1.91796875 C-9.94317879 -2.19720947 -5.29443269 -1.85727252 0 0 Z " fill="#DAF2FC" transform="translate(160,45)"/>
<path d="M0 0 C-1.20556604 0.63032133 -2.41463189 1.2539497 -3.625 1.875 C-4.63433594 2.39707031 -4.63433594 2.39707031 -5.6640625 2.9296875 C-11.08507709 5.41356375 -15.38741505 6.22366053 -21.3671875 5.9765625 C-22.04677521 5.95153656 -22.72636292 5.92651062 -23.42654419 5.90072632 C-25.57658794 5.81918563 -27.72561992 5.7223486 -29.875 5.625 C-31.34110579 5.56669266 -32.80725194 5.50939093 -34.2734375 5.453125 C-37.84949901 5.3137081 -41.42481887 5.16057533 -45 5 C-45 4.67 -45 4.34 -45 4 C-44.21874756 3.97494385 -43.43749512 3.9498877 -42.63256836 3.92407227 C-39.06740383 3.80749797 -35.50246387 3.68505135 -31.9375 3.5625 C-30.70837891 3.52318359 -29.47925781 3.48386719 -28.21289062 3.44335938 C-17.60978832 3.56041838 -17.60978832 3.56041838 -8 0 C-2.47887324 -1.23943662 -2.47887324 -1.23943662 0 0 Z " fill="#6AA5E1" transform="translate(217,180)"/>
<path d="M0 0 C0.33 0 0.66 0 1 0 C1 1.98 1 3.96 1 6 C1.66 6 2.32 6 3 6 C3.66 6.66 4.32 7.32 5 8 C5.845625 8.474375 6.69125 8.94875 7.5625 9.4375 C10 11 10 11 11 14 C13.00016466 15.20882096 13.00016466 15.20882096 15 16 C13 17 13 17 10.50390625 16.21484375 C2.59900927 12.78203988 2.59900927 12.78203988 -0.25 9.0625 C-1.08693507 5.64501513 -0.88623766 3.3838165 0 0 Z " fill="#B1DBED" transform="translate(32,166)"/>
<path d="M0 0 C4.76018208 4.76018208 5.05243934 11.45630161 5.0625 17.875 C5.0466164 19.25006609 5.02749766 20.62511713 5 22 C1.18713979 14.62294438 -0.39608095 8.31770004 0 0 Z " fill="#6F9DD9" transform="translate(197,79)"/>
<path d="M0 0 C0.99 0.33 1.98 0.66 3 1 C1.02 3.97 1.02 3.97 -1 7 C-1.55945313 6.855625 -2.11890625 6.71125 -2.6953125 6.5625 C-10.16479903 4.83322981 -17.35996753 4.80184354 -25 5 C-23 3 -23 3 -20.66162109 2.77294922 C-19.70852051 2.78342285 -18.75541992 2.79389648 -17.7734375 2.8046875 C-16.2265625 2.81435547 -16.2265625 2.81435547 -14.6484375 2.82421875 C-13.02808594 2.84935547 -13.02808594 2.84935547 -11.375 2.875 C-10.28703125 2.88402344 -9.1990625 2.89304687 -8.078125 2.90234375 C-5.38519848 2.92596591 -2.69270745 2.95890444 0 3 C0 2.01 0 1.02 0 0 Z " fill="#CDEEF7" transform="translate(93,69)"/>
<path d="M0 0 C0.5625 1.9375 0.5625 1.9375 1 4 C0.67 4.33 0.34 4.66 0 5 C-0.12375 6.258125 -0.2475 7.51625 -0.375 8.8125 C-0.77657503 12.38205581 -1.51227517 14.31325718 -4 17 C-4.66 17.99 -5.32 18.98 -6 20 C-6 19.34 -6 18.68 -6 18 C-6.66 18 -7.32 18 -8 18 C-8 18.66 -8 19.32 -8 20 C-8.66 19.67 -9.32 19.34 -10 19 C-9.52949219 18.29875 -9.05898437 17.5975 -8.57421875 16.875 C-4.95945954 11.36679549 -2.01373173 6.27810479 0 0 Z " fill="#C8DFF5" transform="translate(235,154)"/>
<path d="M0 0 C-6.625 4 -6.625 4 -10 4 C-10.433125 4.433125 -10.86625 4.86625 -11.3125 5.3125 C-13.58847233 7.58847233 -16.07895416 8.69485186 -19 10 C-19.66 10 -20.32 10 -21 10 C-20.8125 8.125 -20.8125 8.125 -20 6 C-17.875 4.9375 -17.875 4.9375 -15 4 C-13.845 3.505 -12.69 3.01 -11.5 2.5 C-10.345 2.005 -9.19 1.51 -8 1 C-7.0925 0.5875 -6.185 0.175 -5.25 -0.25 C-3 -1 -3 -1 0 0 Z " fill="#61A9E8" transform="translate(132,50)"/>
<path d="M0 0 C0.55268555 0.15847412 1.10537109 0.31694824 1.67480469 0.48022461 C4.22064305 1.04932267 6.59699445 1.2103428 9.203125 1.31640625 C10.67265625 1.37924805 10.67265625 1.37924805 12.171875 1.44335938 C13.18765625 1.48267578 14.2034375 1.52199219 15.25 1.5625 C16.796875 1.62727539 16.796875 1.62727539 18.375 1.69335938 C20.9165387 1.79925682 23.45817196 1.90133443 26 2 C26 2.33 26 2.66 26 3 C17.6642882 4.48190432 9.3357118 4.48190432 1 3 C0.67 2.01 0.34 1.02 0 0 Z " fill="#96D2E9" transform="translate(56,182)"/>
<path d="M0 0 C0.33 0.66 0.66 1.32 1 2 C0.67 2.66 0.34 3.32 0 4 C0.99 4.33 1.98 4.66 3 5 C1.3125 7.5 1.3125 7.5 -1 10 C-3.75 10.3125 -3.75 10.3125 -6 10 C-6 10.66 -6 11.32 -6 12 C-6.66 12 -7.32 12 -8 12 C-8 11.01 -8 10.02 -8 9 C-7.4225 8.814375 -6.845 8.62875 -6.25 8.4375 C-2.89572157 6.29448878 -1.82092004 3.51177437 0 0 Z M3 3 C5 4 5 4 5 4 Z " fill="#89C6E9" transform="translate(97,67)"/>
<path d="M0 0 C0.66 0 1.32 0 2 0 C2.66 1.65 3.32 3.3 4 5 C4.99 5 5.98 5 7 5 C7 7.97 7 10.94 7 14 C6.01 14 5.02 14 4 14 C3.896875 12.948125 3.79375 11.89625 3.6875 10.8125 C3.01750713 7.09708498 2.03743581 5.10044579 0 2 C0 1.34 0 0.68 0 0 Z " fill="#5490E4" transform="translate(190,74)"/>
<path d="M0 0 C5.61 0 11.22 0 17 0 C17 0.33 17 0.66 17 1 C15.78763672 1.16435547 15.78763672 1.16435547 14.55078125 1.33203125 C12.94783203 1.56986328 12.94783203 1.56986328 11.3125 1.8125 C10.25675781 1.96332031 9.20101562 2.11414063 8.11328125 2.26953125 C4.86071861 3.03267957 2.75165078 4.1390028 0 6 C-0.99 6.66 -1.98 7.32 -3 8 C-2.67 6.35 -2.34 4.7 -2 3 C-1.34 3 -0.68 3 0 3 C0 2.01 0 1.02 0 0 Z " fill="#96D1F3" transform="translate(48,96)"/>
<path d="M0 0 C3.3 0.99 6.6 1.98 10 3 C10 3.66 10 4.32 10 5 C10.66 5 11.32 5 12 5 C13.49524178 7.2727675 14.78399715 9.5679943 16 12 C9.92470106 9.15220362 4.54413269 4.92281041 0 0 Z " fill="#BDD9F4" transform="translate(171,52)"/>
<path d="M0 0 C2.15377564 2.62198774 3.40072174 4.64404172 4 8 C4.99 8 5.98 8 7 8 C7.33 8.99 7.66 9.98 8 11 C8.99 11.66 9.98 12.32 11 13 C10.67 13.99 10.34 14.98 10 16 C8.70145279 14.92492371 7.41141639 13.83956264 6.125 12.75 C5.40570312 12.14671875 4.68640625 11.5434375 3.9453125 10.921875 C1.16521026 8.17526797 0.05258258 6.15681684 -0.125 2.25 C-0.063125 1.13625 -0.063125 1.13625 0 0 Z " fill="#D9F2FA" transform="translate(20,156)"/>
<path d="M0 0 C-0.38295049 2.22111286 -0.86920188 3.80380283 -2.125 5.6875 C-4.90436873 7.63305811 -7.67889163 7.68668789 -11 8 C-9.33333333 6.33333333 -7.66666667 4.66666667 -6 3 C-6 2.34 -6 1.68 -6 1 C-3.92446352 0.4465236 -2.15634036 0 0 0 Z " fill="#6494DC" transform="translate(223,172)"/>
<path d="M0 0 C6.43812562 2.082923 10.91473408 6.00087183 14 12 C13.01 12.33 12.02 12.66 11 13 C11 12.34 11 11.68 11 11 C10.34 11 9.68 11 9 11 C9 10.01 9 9.02 9 8 C8.34 8 7.68 8 7 8 C7 7.34 7 6.68 7 6 C6.01 5.67 5.02 5.34 4 5 C3.67 4.34 3.34 3.68 3 3 C2.01 2.67 1.02 2.34 0 2 C0 1.34 0 0.68 0 0 Z " fill="#638FD7" transform="translate(214,107)"/>
<path d="M0 0 C0.99 0 1.98 0 3 0 C3 0.66 3 1.32 3 2 C3.8971875 2.1546875 3.8971875 2.1546875 4.8125 2.3125 C7.31258286 3.09824033 8.37535082 3.96918853 10 6 C10 6.66 10 7.32 10 8 C10.66 8.33 11.32 8.66 12 9 C10.35 9.33 8.7 9.66 7 10 C7 9.01 7 8.02 7 7 C6.030625 6.5875 5.06125 6.175 4.0625 5.75 C1 4 1 4 0.125 1.8125 C0.08375 1.214375 0.0425 0.61625 0 0 Z " fill="#5792E3" transform="translate(211,107)"/>
<path d="M0 0 C0.33 1.32 0.66 2.64 1 4 C2.98 4 4.96 4 7 4 C7 4.66 7 5.32 7 6 C8.98 6 10.96 6 13 6 C13.33 7.32 13.66 8.64 14 10 C9.27775484 8.46527032 4.64144669 6.76054874 0 5 C0 3.35 0 1.7 0 0 Z " fill="#C9E8FA" transform="translate(203,98)"/>
<path d="M0 0 C1.91635217 -0.05423638 3.83314925 -0.09289963 5.75 -0.125 C7.35101563 -0.15980469 7.35101563 -0.15980469 8.984375 -0.1953125 C11.92470106 -0.00487687 13.52361878 0.47329896 16 2 C15.67 2.66 15.34 3.32 15 4 C12.36 4 9.72 4 7 4 C7 3.01 7 2.02 7 1 C4.69 1.33 2.38 1.66 0 2 C0 1.34 0 0.68 0 0 Z " fill="#9BD3E8" transform="translate(74,74)"/>
<path d="M0 0 C3.38256721 1.39197329 4.83688682 2.8025496 6.6875 5.9375 C7.31205078 6.97197266 7.31205078 6.97197266 7.94921875 8.02734375 C9 10 9 10 10 13 C9.01 13 8.02 13 7 13 C6.34 11.35 5.68 9.7 5 8 C4.34 8 3.68 8 3 8 C2.67 7.01 2.34 6.02 2 5 C2.33 4.34 2.66 3.68 3 3 C2.01 3 1.02 3 0 3 C0 2.01 0 1.02 0 0 Z " fill="#6F9DD6" transform="translate(187,66)"/>
<path d="M0 0 C0.99 0.495 0.99 0.495 2 1 C2 1.66 2 2.32 2 3 C3.32 3.66 4.64 4.32 6 5 C6 6.32 6 7.64 6 9 C6.99 9.33 7.98 9.66 9 10 C8.67 10.99 8.34 11.98 8 13 C6.65472507 11.59466816 5.3241269 10.17527548 4 8.75 C3.2575 7.96109375 2.515 7.1721875 1.75 6.359375 C0 4 0 4 0 0 Z " fill="#E6F9FC" transform="translate(183,56)"/>
<path d="M0 0 C1.27875 0.28875 2.5575 0.5775 3.875 0.875 C4.95394531 1.11863281 4.95394531 1.11863281 6.0546875 1.3671875 C8 2 8 2 10 4 C9.34 5.32 8.68 6.64 8 8 C7.01 7.67 6.02 7.34 5 7 C4.67 6.34 4.34 5.68 4 5 C3.319375 4.505 2.63875 4.01 1.9375 3.5 C1.298125 3.005 0.65875 2.51 0 2 C0 1.34 0 0.68 0 0 Z " fill="#6EA3DF" transform="translate(203,103)"/>
<path d="M0 0 C0 0.66 0 1.32 0 2 C-0.99 2 -1.98 2 -3 2 C-3.226875 2.5775 -3.45375 3.155 -3.6875 3.75 C-5.33038023 6.5663661 -7.39533227 8.08077114 -10 10 C-10.33 9.34 -10.66 8.68 -11 8 C-4.73913043 0 -4.73913043 0 0 0 Z " fill="#BBDCEA" transform="translate(62,77)"/>
<path d="M0 0 C0.66 0.33 1.32 0.66 2 1 C1.4375 2.9375 1.4375 2.9375 0 5 C-3.1875 5.6875 -3.1875 5.6875 -7 6 C-8.9490625 6.2784375 -8.9490625 6.2784375 -10.9375 6.5625 C-11.948125 6.706875 -12.95875 6.85125 -14 7 C-11.26845992 5.17897328 -8.91736704 4.10388853 -5.875 2.9375 C-2.68623321 1.87284184 -2.68623321 1.87284184 0 0 Z " fill="#CAE5F9" transform="translate(217,179)"/>
<path d="M0 0 C-3.80544125 2.9272625 -7.69729493 5.84864746 -12 8 C-9.49922557 0.88241125 -7.68009555 -0.43472239 0 0 Z " fill="#E9FAFD" transform="translate(64,75)"/>
<path d="M0 0 C-2.31941506 1.54627671 -4.52979752 2.86182828 -7 4.125 C-7.680625 4.47820313 -8.36125 4.83140625 -9.0625 5.1953125 C-11 6 -11 6 -14 6 C-14 5.34 -14 4.68 -14 4 C-12.35 3.67 -10.7 3.34 -9 3 C-9 2.34 -9 1.68 -9 1 C-6.04335481 -0.4783226 -3.25770263 -0.06032783 0 0 Z " fill="#DCF6FD" transform="translate(125,48)"/>
<path d="M0 0 C0.66 0 1.32 0 2 0 C1.46884894 4.51478398 -0.36620292 7.34666857 -3 11 C-3.99 10.67 -4.98 10.34 -6 10 C-5.38125 9.0925 -4.7625 8.185 -4.125 7.25 C-2.55610389 4.85051183 -1.19556179 2.59038388 0 0 Z " fill="#5489EB" transform="translate(228,160)"/>
<path d="M0 0 C0.33 0.66 0.66 1.32 1 2 C0.2578125 3.83984375 0.2578125 3.83984375 -0.875 5.9375 C-2.14935537 8.32134658 -3.13961648 10.41884944 -4 13 C-4.66 13 -5.32 13 -6 13 C-5.33300065 8.59780431 -3.91896516 4.99144754 -2 1 C-1.34 0.67 -0.68 0.34 0 0 Z " fill="#ACD5E6" transform="translate(52,86)"/>
<path d="M0 0 C0.33 0 0.66 0 1 0 C1.12375 0.804375 1.2475 1.60875 1.375 2.4375 C1.684375 3.7059375 1.684375 3.7059375 2 5 C2.66 5.33 3.32 5.66 4 6 C4 7.98 4 9.96 4 12 C1.25498003 8.38813161 -1.37012014 4.69604737 -4 1 C-2.68 1.33 -1.36 1.66 0 2 C0 1.34 0 0.68 0 0 Z " fill="#CAE4F7" transform="translate(229,114)"/>
<path d="M0 0 C0.99 0 1.98 0 3 0 C3 0.66 3 1.32 3 2 C1.21385682 3.03046722 -0.57910018 4.04913236 -2.375 5.0625 C-3.87160156 5.91521484 -3.87160156 5.91521484 -5.3984375 6.78515625 C-6.25695313 7.18605469 -7.11546875 7.58695312 -8 8 C-8.66 7.67 -9.32 7.34 -10 7 C-9.01 6.67 -8.02 6.34 -7 6 C-7 5.34 -7 4.68 -7 4 C-6.401875 3.896875 -5.80375 3.79375 -5.1875 3.6875 C-2.91889034 3.15981013 -2.91889034 3.15981013 -1.4375 1.4375 C-0.963125 0.963125 -0.48875 0.48875 0 0 Z " fill="#B3D9E8" transform="translate(41,102)"/>
<path d="M0 0 C-0.99 0.33 -1.98 0.66 -3 1 C-3 1.66 -3 2.32 -3 3 C-9.625 6 -9.625 6 -13 6 C-3.96638655 -1.98319328 -3.96638655 -1.98319328 0 0 Z " fill="#7DB1DC" transform="translate(127,49)"/>
<path d="M0 0 C2.97 0 5.94 0 9 0 C9 0.99 9 1.98 9 3 C6.36 3 3.72 3 1 3 C0.67 2.01 0.34 1.02 0 0 Z " fill="#56A0EA" transform="translate(135,48)"/>
<path d="M0 0 C1.65 0.33 3.3 0.66 5 1 C5 1.66 5 2.32 5 3 C3.36935236 4.05771739 1.69719127 5.05273046 0 6 C-0.99 6.66 -1.98 7.32 -3 8 C-1.125 2.25 -1.125 2.25 0 0 Z " fill="#5EB2E5" transform="translate(91,77)"/>
<path d="M0 0 C1.98 0.66 3.96 1.32 6 2 C6.33 4.64 6.66 7.28 7 10 C4.3513141 6.80331012 2.06007659 3.60513403 0 0 Z " fill="#D0E9F9" transform="translate(192,71)"/>
<path d="M0 0 C0.66 0.33 1.32 0.66 2 1 C0.8125 3.4375 0.8125 3.4375 -1 6 C-3.6875 6.8125 -3.6875 6.8125 -6 7 C-5.34 5.68 -4.68 4.36 -4 3 C-3.34 3.33 -2.68 3.66 -2 4 C-1.34 2.68 -0.68 1.36 0 0 Z " fill="#80BCE3" transform="translate(103,64)"/>
<path d="M0 0 C4.29 0 8.58 0 13 0 C12.67 0.99 12.34 1.98 12 3 C6.06 2.01 6.06 2.01 0 1 C0 0.67 0 0.34 0 0 Z " fill="#5897DC" transform="translate(144,48)"/>
<path d="M0 0 C0.66 0 1.32 0 2 0 C2 1.32 2 2.64 2 4 C2.66 4 3.32 4 4 4 C4 5.65 4 7.3 4 9 C3.34 9 2.68 9 2 9 C1.34 6.03 0.68 3.06 0 0 Z " fill="#DDEEFE" transform="translate(234,127)"/>
<path d="M0 0 C0.99 0.33 1.98 0.66 3 1 C3 3.97 3 6.94 3 10 C0.51280729 7.08025204 -0.58572305 4.83206182 -1 1 C-0.67 0.67 -0.34 0.34 0 0 Z " fill="#5F9ADD" transform="translate(200,97)"/>
<path d="M0 0 C0.66 0.33 1.32 0.66 2 1 C1.01 4.3 0.02 7.6 -1 11 C-1.33 9.68 -1.66 8.36 -2 7 C-2.2475 6.319375 -2.495 5.63875 -2.75 4.9375 C-2.8325 4.298125 -2.915 3.65875 -3 3 C-1.5625 1.25 -1.5625 1.25 0 0 Z " fill="#84D1F9" transform="translate(87,80)"/>
<path d="M0 0 C0.33 0.66 0.66 1.32 1 2 C-0.65 3.98 -2.3 5.96 -4 8 C-4.33 7.01 -4.66 6.02 -5 5 C-3.35 3.35 -1.7 1.7 0 0 Z " fill="#A7D6ED" transform="translate(29,116)"/>
<path d="M0 0 C0.66 0.33 1.32 0.66 2 1 C0.02 3.97 -1.96 6.94 -4 10 C-4.33 9.34 -4.66 8.68 -5 8 C-3.62292893 4.85240898 -2.43840236 2.43840236 0 0 Z " fill="#DFF4FA" transform="translate(28,110)"/>
<path d="M0 0 C4.43458973 1.3937282 6.87378374 3.60582235 10 7 C7.97954558 6.39816251 5.97888961 5.72693904 4 5 C3.67 4.34 3.34 3.68 3 3 C2.01 2.67 1.02 2.34 0 2 C0 1.34 0 0.68 0 0 Z " fill="#7AA2D3" transform="translate(214,107)"/>
<path d="M0 0 C-2.61514317 2.12038635 -5.19637616 4.13091744 -8 6 C-7.625 3.5625 -7.625 3.5625 -7 1 C-4.53721199 -0.231394 -2.7204945 -0.07159196 0 0 Z " fill="#88C3E7" transform="translate(53,98)"/>
<path d="M0 0 C0.66 0 1.32 0 2 0 C2.33 0.99 2.66 1.98 3 3 C3.99 3.66 4.98 4.32 6 5 C5.67 5.99 5.34 6.98 5 8 C2.5 5.6875 2.5 5.6875 0 3 C0 2.01 0 1.02 0 0 Z " fill="#B8DBEC" transform="translate(25,164)"/>
<path d="M0 0 C0.99 0 1.98 0 3 0 C3 0.66 3 1.32 3 2 C4.32 2.33 5.64 2.66 7 3 C6.67 3.66 6.34 4.32 6 5 C4.35 4.67 2.7 4.34 1 4 C0.67 2.68 0.34 1.36 0 0 Z " fill="#5E95DC" transform="translate(211,107)"/>
</svg>
