<?xml version="1.0" encoding="UTF-8"?>
<svg version="1.1" xmlns="http://www.w3.org/2000/svg" width="512" height="512">
<path d="M0 0 C2.16571611 -0.00300014 4.3314317 -0.0064046 6.49714661 -0.01017761 C12.32828902 -0.01893621 18.15941671 -0.0213523 23.99056506 -0.0219934 C27.64962141 -0.0227087 31.30867413 -0.02485204 34.96772957 -0.02749062 C47.77861896 -0.03671806 60.58949802 -0.04082889 73.40039062 -0.04003906 C85.26768187 -0.03943941 97.1349275 -0.04997591 109.00220722 -0.06578273 C119.25174177 -0.07893929 129.50126157 -0.08421956 139.75080448 -0.08358365 C145.84524811 -0.08333098 151.93965115 -0.08605237 158.03408623 -0.0967617 C258.05034059 -0.26026099 258.05034059 -0.26026099 291.57250977 31.45776367 C320.18920786 61.3323386 320.97859902 102.39929987 320.96777344 141.31689453 C320.97077291 143.49393775 320.97417722 145.67098045 320.97795105 147.84802246 C320.98671658 153.71427977 320.98912604 159.58052246 320.98976684 165.44678569 C320.99048175 169.12676755 320.99262439 172.8067458 320.99526405 176.48672676 C321.00449389 189.36778114 321.00860204 202.24882523 321.0078125 215.12988281 C321.00721283 227.06704156 321.01774909 239.00415495 321.03355616 250.94130224 C321.046708 261.24685148 321.05199319 271.55238604 321.05135709 281.85794359 C321.05110428 287.98758168 321.05383385 294.11717941 321.06453514 300.24680901 C321.22553561 399.37573544 321.22553561 399.37573544 289.51000977 432.89526367 C259.39624199 461.74108333 217.91821513 462.30155834 178.73681641 462.29052734 C176.58095238 462.29352753 174.42508889 462.29693201 172.26922607 462.30070496 C166.4649423 462.30946304 160.66067331 462.31187962 154.85638356 462.31252074 C151.21407818 462.31323607 147.57177644 462.31537947 143.92947197 462.31801796 C131.17693726 462.32724524 118.42441294 462.33135626 105.671875 462.33056641 C93.85911524 462.32996676 82.04640131 462.34050316 70.23365313 462.35631007 C60.03082731 462.36946716 49.82801631 462.37474688 39.62518209 462.374111 C33.55868406 462.37385834 27.49222682 462.37657888 21.42573738 462.38728905 C-74.46784559 462.54478276 -74.46784559 462.54478276 -105.17749023 436.14526367 C-106.18682617 435.35249023 -106.18682617 435.35249023 -107.21655273 434.54370117 C-126.99548751 418.54719217 -136.53645275 393.25278442 -139.46593475 368.73076057 C-141.98370531 344.7867898 -141.47242656 320.66784341 -141.44614124 296.62787318 C-141.44100728 290.44751618 -141.44579285 284.26716454 -141.44891357 278.08680725 C-141.45253172 267.71752845 -141.4478108 257.34827833 -141.43823242 246.97900391 C-141.4273492 235.06094532 -141.43088129 223.14295521 -141.44188523 211.22489828 C-141.45101646 200.91489742 -141.45221518 190.60491695 -141.44700789 180.29491335 C-141.4439204 174.17101807 -141.44338866 168.04715476 -141.45008087 161.92326164 C-141.53967079 66.92537246 -141.53967079 66.92537246 -116.17749023 37.14526367 C-115.54713867 36.35893555 -114.91678711 35.57260742 -114.26733398 34.76245117 C-95.40735584 12.27148658 -68.44673801 3.81432533 -40.17749023 1.14526367 C-26.78174604 0.1685085 -13.42654381 -0.00376227 0 0 Z " fill="#FEAC01" transform="translate(166.177490234375,24.854736328125)"/>
<path d="M0 0 C2.16571611 -0.00300014 4.3314317 -0.0064046 6.49714661 -0.01017761 C12.32828902 -0.01893621 18.15941671 -0.0213523 23.99056506 -0.0219934 C27.64962141 -0.0227087 31.30867413 -0.02485204 34.96772957 -0.02749062 C47.77861896 -0.03671806 60.58949802 -0.04082889 73.40039062 -0.04003906 C85.26768187 -0.03943941 97.1349275 -0.04997591 109.00220722 -0.06578273 C119.25174177 -0.07893929 129.50126157 -0.08421956 139.75080448 -0.08358365 C145.84524811 -0.08333098 151.93965115 -0.08605237 158.03408623 -0.0967617 C258.05034059 -0.26026099 258.05034059 -0.26026099 291.57250977 31.45776367 C320.18920786 61.3323386 320.97859902 102.39929987 320.96777344 141.31689453 C320.97077291 143.49393775 320.97417722 145.67098045 320.97795105 147.84802246 C320.98671658 153.71427977 320.98912604 159.58052246 320.98976684 165.44678569 C320.99048175 169.12676755 320.99262439 172.8067458 320.99526405 176.48672676 C321.00449389 189.36778114 321.00860204 202.24882523 321.0078125 215.12988281 C321.00721283 227.06704156 321.01774909 239.00415495 321.03355616 250.94130224 C321.046708 261.24685148 321.05199319 271.55238604 321.05135709 281.85794359 C321.05110428 287.98758168 321.05383385 294.11717941 321.06453514 300.24680901 C321.22553561 399.37573544 321.22553561 399.37573544 289.51000977 432.89526367 C259.39624199 461.74108333 217.91821513 462.30155834 178.73681641 462.29052734 C176.58095238 462.29352753 174.42508889 462.29693201 172.26922607 462.30070496 C166.4649423 462.30946304 160.66067331 462.31187962 154.85638356 462.31252074 C151.21407818 462.31323607 147.57177644 462.31537947 143.92947197 462.31801796 C131.17693726 462.32724524 118.42441294 462.33135626 105.671875 462.33056641 C93.85911524 462.32996676 82.04640131 462.34050316 70.23365313 462.35631007 C60.03082731 462.36946716 49.82801631 462.37474688 39.62518209 462.374111 C33.55868406 462.37385834 27.49222682 462.37657888 21.42573738 462.38728905 C-74.46784559 462.54478276 -74.46784559 462.54478276 -105.17749023 436.14526367 C-106.18682617 435.35249023 -106.18682617 435.35249023 -107.21655273 434.54370117 C-126.99548751 418.54719217 -136.53645275 393.25278442 -139.46593475 368.73076057 C-141.98370531 344.7867898 -141.47242656 320.66784341 -141.44614124 296.62787318 C-141.44100728 290.44751618 -141.44579285 284.26716454 -141.44891357 278.08680725 C-141.45253172 267.71752845 -141.4478108 257.34827833 -141.43823242 246.97900391 C-141.4273492 235.06094532 -141.43088129 223.14295521 -141.44188523 211.22489828 C-141.45101646 200.91489742 -141.45221518 190.60491695 -141.44700789 180.29491335 C-141.4439204 174.17101807 -141.44338866 168.04715476 -141.45008087 161.92326164 C-141.53967079 66.92537246 -141.53967079 66.92537246 -116.17749023 37.14526367 C-115.54713867 36.35893555 -114.91678711 35.57260742 -114.26733398 34.76245117 C-95.40735584 12.27148658 -68.44673801 3.81432533 -40.17749023 1.14526367 C-26.78174604 0.1685085 -13.42654381 -0.00376227 0 0 Z M64.82250977 36.14526367 C63.81446289 36.65444336 62.80641602 37.16362305 61.76782227 37.68823242 C46.94647569 45.76420306 37.1000591 57.48147445 30.82250977 73.14526367 C29.8937141 76.79378635 29.24941539 80.40615927 28.82250977 84.14526367 C28.28625977 83.77014648 27.75000977 83.3950293 27.19750977 83.00854492 C11.77700028 72.93956093 -5.89982849 70.48307466 -23.92749023 73.84448242 C-26.83358284 74.74128444 -29.447906 75.80977691 -32.17749023 77.14526367 C-33.07983398 77.54616211 -33.98217773 77.94706055 -34.91186523 78.36010742 C-51.31807297 86.3546578 -61.11991836 100.29920635 -67.17749023 117.14526367 C-71.99151519 133.67124754 -67.73403295 151.91650913 -59.86499023 166.64526367 C-58.98410246 168.15408907 -58.09439497 169.65805049 -57.17749023 171.14526367 C-58.46913086 171.07952148 -58.46913086 171.07952148 -59.78686523 171.01245117 C-71.77121655 171.48188429 -84.34203233 179.72374944 -92.94311523 187.68432617 C-104.17072134 200.05039583 -109.35117894 213.78702419 -109.42749023 230.27026367 C-109.44811523 231.36081055 -109.46874023 232.45135742 -109.48999023 233.57495117 C-109.56865126 250.01510604 -102.64103895 264.42937269 -91.17749023 276.14526367 C-80.97086827 284.88953336 -70.00231186 289.54707704 -57.17749023 293.14526367 C-57.63639648 293.80010742 -58.09530273 294.45495117 -58.56811523 295.12963867 C-67.57604009 308.52798068 -71.72457399 324.23306721 -68.77905273 340.3215332 C-64.77212598 356.96183767 -55.99316427 371.71820055 -41.48999023 381.14526367 C-39.73100946 382.16596801 -37.96116753 383.16835734 -36.17749023 384.14526367 C-35.52522461 384.54229492 -34.87295898 384.93932617 -34.20092773 385.34838867 C-21.92762754 392.34678112 -6.177332 392.79464065 7.26000977 389.64526367 C15.39336184 387.28727504 22.53851359 383.40201037 29.82250977 379.14526367 C29.82250977 380.30026367 29.82250977 381.45526367 29.82250977 382.64526367 C31.26407973 395.66058107 40.73290805 408.9880361 50.38500977 417.27026367 C66.47343201 429.57028068 84.20085935 432.30823792 104.04223633 429.87280273 C118.99788553 427.08686914 132.03494157 416.23960101 140.70922852 404.32885742 C145.89793029 396.51223644 148.66361664 388.2196356 150.82250977 379.14526367 C151.7287207 379.68795898 152.63493164 380.2306543 153.56860352 380.78979492 C163.11071479 386.42789754 171.58010005 390.57813915 182.82250977 391.14526367 C183.95946289 391.2097168 185.09641602 391.27416992 186.26782227 391.34057617 C203.26349497 391.86405685 218.429856 385.68278427 231.28344727 374.62573242 C238.4978782 367.57778835 243.08966057 359.43398143 246.82250977 350.14526367 C247.17571289 349.33831055 247.52891602 348.53135742 247.89282227 347.69995117 C252.15964711 335.97514677 251.39477246 318.60767224 246.82250977 307.14526367 C244.15442173 301.5990992 241.24010184 296.27165178 237.82250977 291.14526367 C239.15282227 291.05245117 239.15282227 291.05245117 240.51000977 290.95776367 C255.73025041 288.7086188 267.98892206 279.49301973 277.82250977 268.14526367 C289.02560529 252.68691513 289.94327202 236.66601642 288.82250977 218.14526367 C288.08293094 213.70779071 286.88889351 210.12609117 284.82250977 206.14526367 C284.30172852 205.12561523 283.78094727 204.1059668 283.24438477 203.05541992 C274.97907332 187.99542678 263.07738227 178.01337488 246.82250977 172.14526367 C243.73280984 171.49997365 240.98938576 171.2526154 237.82250977 171.14526367 C238.35360352 170.23647461 238.88469727 169.32768555 239.43188477 168.39135742 C248.50364447 152.44503879 252.91468912 136.13317828 248.26000977 117.95776367 C243.14692637 102.31669952 234.06603411 89.04513987 219.73266602 80.61010742 C204.30344212 72.84371955 186.47405842 69.84490306 169.57250977 74.77026367 C162.54845727 77.37866513 156.04537162 80.9966891 149.82250977 85.14526367 C149.92563477 84.25838867 150.02875977 83.37151367 150.13500977 82.45776367 C150.109777 69.99277919 141.47119966 57.46543616 133.07250977 48.89526367 C119.49680462 35.55033082 104.86681284 31.84246203 86.33740234 31.83056641 C78.50841537 31.92629745 71.87032094 32.49204045 64.82250977 36.14526367 Z " fill="#FEFEFE" transform="translate(166.177490234375,24.854736328125)"/>
<path d="M0 0 C4.64759031 4.068549 9.0020162 8.45775821 13.3828125 12.80859375 C14.64967304 14.06069038 15.91659109 15.31272882 17.18356323 16.56471252 C19.82639348 19.18070226 22.46256463 21.80321157 25.09521484 24.42944336 C28.43620387 27.75958634 31.80186098 31.06354045 35.1742878 34.36180019 C37.79802181 36.93668102 40.40313906 39.52982464 43.00381088 42.12797737 C44.23534476 43.35237685 45.47336334 44.57029587 46.71844864 45.7809124 C58.70369925 57.45936634 67.59270072 70.77020465 68.265625 87.97265625 C68.27084937 89.66927078 68.2655766 91.36594893 68.25 93.0625 C68.25773437 93.90876953 68.26546875 94.75503906 68.2734375 95.62695312 C68.23202589 109.05466787 62.98990174 121.33989794 55 132 C54.58492188 132.59167969 54.16984375 133.18335938 53.7421875 133.79296875 C45.35824144 144.7623832 29.58460998 153.07145163 16 155 C-1.54084657 155.88011249 -16.28529139 152.9041308 -31 143 C-31.21914063 143.88300781 -31.43828125 144.76601563 -31.6640625 145.67578125 C-36.27253624 163.11679365 -45.05717465 177.44289458 -60.95703125 186.7265625 C-71.31719882 192.12608501 -80.55889602 194.57064381 -92.25 194.5 C-93.35102051 194.49427979 -94.45204102 194.48855957 -95.58642578 194.48266602 C-109.02394842 194.18847877 -119.12584623 189.90686018 -130 182 C-130.64453125 181.53980469 -131.2890625 181.07960938 -131.953125 180.60546875 C-141.39496406 173.22637381 -149.14419669 160.88573375 -151.58984375 149.17578125 C-151.875 146.6875 -151.875 146.6875 -152 143 C-152.90878906 143.53109375 -153.81757813 144.0621875 -154.75390625 144.609375 C-171.26935602 154.00238446 -187.54251962 157.72375785 -206.42578125 153.15625 C-223.98617426 147.47551084 -236.70336372 135.97732275 -245.203125 119.6953125 C-246.25359101 117.49246959 -247.15351924 115.28863317 -248 113 C-248.2990625 112.2059375 -248.598125 111.411875 -248.90625 110.59375 C-253.59030036 96.19463223 -251.72543707 80.45246135 -245.5625 66.8203125 C-238.86165106 54.41729884 -227.69664558 44.53614618 -217.8203125 34.65234375 C-216.79419291 33.62299742 -215.76814258 32.59358205 -214.74215698 31.56410217 C-212.61793594 29.43396903 -210.49173662 27.30583426 -208.36425781 25.17895508 C-205.64591223 22.4607122 -202.93458038 19.73558303 -200.22484016 17.00876522 C-198.11955408 14.89235701 -196.00973505 12.78051296 -193.89861679 10.66992378 C-192.89632086 9.66645367 -191.89563232 8.66137521 -190.89664078 7.6546154 C-189.5050418 6.25318598 -188.10641795 4.85874284 -186.70751953 3.46459961 C-185.52151657 2.27645912 -185.52151657 2.27645912 -184.31155396 1.0643158 C-181.98477965 -1.01359242 -179.77354104 -2.57660478 -177 -4 C-173.10893306 -3.74677183 -169.89722826 -2.16221823 -166.375 -0.5625 C-150.02507316 6.37018957 -133.33404478 4.99304988 -117.0625 -1.55859375 C-113.32549415 -3.31746512 -110.027597 -5.41752132 -106.70703125 -7.86328125 C-105 -9 -105 -9 -103 -9 C-102.96132813 -7.98679688 -102.96132813 -7.98679688 -102.921875 -6.953125 C-102.86515625 -6.06109375 -102.8084375 -5.1690625 -102.75 -4.25 C-102.70359375 -3.36828125 -102.6571875 -2.4865625 -102.609375 -1.578125 C-101.8137672 1.78790801 -100.80271976 2.98482133 -98 5 C-94.83372754 5.59473005 -94.83372754 5.59473005 -91.4375 5.4375 C-90.30183594 5.43621094 -89.16617188 5.43492187 -87.99609375 5.43359375 C-85.07026643 5.21175702 -85.07026643 5.21175702 -83.140625 3.859375 C-81.50854489 1.19886085 -81.47897486 -1.09106753 -81.3125 -4.1875 C-81.21388672 -5.81751953 -81.21388672 -5.81751953 -81.11328125 -7.48046875 C-81.07589844 -8.31191406 -81.03851563 -9.14335937 -81 -10 C-78.50638429 -8.79618552 -76.31856917 -7.54571278 -74 -6 C-69.99810865 -6.38727981 -66.50930709 -7.920053 -62.8125 -9.4375 C-41.07645966 -17.89719624 -18.42356242 -14.36630121 0 0 Z " fill="#1E7B96" transform="translate(348,261)"/>
<path d="M0 0 C0 28.38 0 56.76 0 86 C4.30316317 82.31157443 8.34259747 78.78311928 12.32104492 74.80834961 C12.80332047 74.32782639 13.28559601 73.84730316 13.78248596 73.35221863 C15.35097768 71.78807193 16.91584924 70.22036307 18.48046875 68.65234375 C19.58174825 67.55173919 20.68317604 66.45128299 21.78474426 65.35096741 C24.08167476 63.05550373 26.37680585 60.75826023 28.6706543 58.4597168 C31.60252299 55.52213793 34.53887722 52.5890902 37.47658825 49.65735531 C39.74754611 47.39001905 42.01610696 45.1202965 44.28396034 42.84985542 C45.36564175 41.76750988 46.44805835 40.68589853 47.53124046 39.60505486 C49.04564691 38.09320277 50.55678623 36.57815655 52.06713867 35.06225586 C52.92538742 34.20321152 53.78363617 33.34416718 54.66789246 32.45909119 C56.93219306 30.07149904 58.98564796 27.60008704 61 25 C61.36876755 25.51006088 61.7375351 26.02012177 62.11747742 26.54563904 C67.42004907 33.63589359 73.51363992 39.80574605 79.76953125 46.03515625 C80.89845956 47.1654345 82.02709106 48.29600928 83.15544128 49.42686462 C85.50298586 51.7773365 87.85405652 54.12420556 90.20776367 56.46850586 C93.22870639 59.47796289 96.24045672 62.49643603 99.24969959 65.51758671 C101.57000567 67.84509795 103.89502652 70.16785211 106.22153282 72.48916435 C107.33501779 73.60131385 108.44701538 74.71495455 109.55750465 75.83009529 C111.10102636 77.37867006 112.65076632 78.92073341 114.20239258 80.46118164 C115.08284744 81.34004532 115.96330231 82.218909 116.87043762 83.12440491 C118.77718544 85.22031389 118.77718544 85.22031389 121 85 C118.71709394 102.30919819 110.65485632 117.24327375 96.84375 128.0078125 C85.40786952 136.01921229 73.60432911 139.58371516 59.75 139.5 C58.64897949 139.49427979 57.54795898 139.48855957 56.41357422 139.48266602 C42.97605158 139.18847877 32.87415377 134.90686018 22 127 C21.35546875 126.53980469 20.7109375 126.07960938 20.046875 125.60546875 C10.60503594 118.22637381 2.85580331 105.88573375 0.41015625 94.17578125 C0.125 91.6875 0.125 91.6875 0 88 C-0.90878906 88.53109375 -1.81757813 89.0621875 -2.75390625 89.609375 C-19.26935602 99.00238446 -35.54251962 102.72375785 -54.42578125 98.15625 C-71.98617426 92.47551084 -84.70336372 80.97732275 -93.203125 64.6953125 C-94.25359101 62.49246959 -95.15351924 60.28863317 -96 58 C-96.2990625 57.2059375 -96.598125 56.411875 -96.90625 55.59375 C-101.57822871 41.23174137 -99.91812462 24.90197029 -93.24609375 11.46875 C-88.97004848 3.97004848 -88.97004848 3.97004848 -86 1 C-83.43824964 0.78263503 -80.9812825 0.68861482 -78.41674805 0.68115234 C-77.24329834 0.66608391 -77.24329834 0.66608391 -76.04614258 0.65071106 C-73.45134224 0.61974064 -70.85664605 0.60279911 -68.26171875 0.5859375 C-66.46050628 0.56722815 -64.6593026 0.54765491 -62.85810852 0.5272522 C-58.10732234 0.47580278 -53.35650743 0.43626122 -48.60559082 0.39910889 C-43.78190862 0.35925625 -38.95834929 0.30800656 -34.13476562 0.2578125 C-27.08036902 0.18594323 -20.02595561 0.1186493 -12.97143555 0.06005859 C-11.86699852 0.05074562 -11.86699852 0.05074562 -10.74024963 0.04124451 C-7.15989797 0.01239488 -3.58054707 0 0 0 Z " fill="#AB86C4" transform="translate(196,316)"/>
<path d="M0 0 C3.88545482 2.45840965 3.88545482 2.45840965 5.0625 4.8125 C5.15563039 7.49783626 5.18826984 10.15691004 5.17602539 12.84228516 C5.17614593 13.68506201 5.17626646 14.52783886 5.17639065 15.3961544 C5.1756427 18.13131704 5.1680198 20.86641201 5.16015625 23.6015625 C5.15868647 25.28735318 5.15766598 26.97314432 5.15710449 28.65893555 C5.15185583 34.91846398 5.13789469 41.17798265 5.125 47.4375 C5.104375 61.42125 5.08375 75.405 5.0625 89.8125 C-22.9875 89.8125 -51.0375 89.8125 -79.9375 89.8125 C-72.92923877 97.64559419 -72.92923877 97.64559419 -65.68066406 105.19873047 C-64.29442841 106.58969437 -64.29442841 106.58969437 -62.88018799 108.00875854 C-61.90462798 108.98252944 -60.92893725 109.95616938 -59.953125 110.9296875 C-58.9240694 111.95941904 -57.89516208 112.98929879 -56.86639404 114.01931763 C-54.73009111 116.1570806 -52.59202643 118.29306068 -50.45263672 120.42773438 C-47.72027579 123.15436258 -44.99247935 125.88550648 -42.26596451 128.61797905 C-40.1504708 130.73709357 -38.03259235 132.85381186 -35.91399384 134.96982193 C-34.90700811 135.97614447 -33.90075388 136.98319958 -32.8952713 137.99102402 C-31.49152819 139.39732275 -30.08421071 140.80005083 -28.67675781 142.20263672 C-27.88005676 142.99854218 -27.08335571 143.79444763 -26.26251221 144.61447144 C-23.91976094 146.82927022 -21.48255539 148.83553041 -18.9375 150.8125 C-19.44796875 151.18126755 -19.9584375 151.5500351 -20.484375 151.92997742 C-27.57060752 157.22722874 -33.72191862 163.32248963 -39.9375 169.58203125 C-41.06530774 170.71103375 -42.19348832 171.83966391 -43.32202148 172.96794128 C-45.66815711 175.31562972 -48.01092874 177.66660458 -50.35107422 180.02026367 C-53.35316271 183.0394683 -56.3619204 186.0519199 -59.37295532 189.06219959 C-61.69460125 191.38411683 -64.01363721 193.70862565 -66.33178711 196.03403282 C-67.44120346 197.14663171 -68.55122684 198.25862566 -69.66186523 199.37000465 C-71.20549964 200.91579979 -72.74580186 202.46483675 -74.28515625 204.01489258 C-75.60012085 205.33557487 -75.60012085 205.33557487 -76.94165039 206.68293762 C-78.97480552 208.64933669 -78.97480552 208.64933669 -79.9375 210.8125 C-94.12335901 210.09118513 -105.33450602 203.72431271 -115.6875 194.3125 C-116.43 193.4875 -117.1725 192.6625 -117.9375 191.8125 C-118.47761719 191.26464844 -119.01773438 190.71679688 -119.57421875 190.15234375 C-130.29295629 178.82907872 -134.52239984 164.7241406 -134.375 149.4375 C-134.36670166 148.33059814 -134.35840332 147.22369629 -134.34985352 146.08325195 C-134.18997125 138.37874743 -133.53443214 131.74188398 -129.9375 124.8125 C-129.15632813 123.28302734 -129.15632813 123.28302734 -128.359375 121.72265625 C-120.36173731 107.15038396 -109.4074041 97.93600371 -93.9375 91.8125 C-92.844375 91.379375 -91.75125 90.94625 -90.625 90.5 C-87.63780367 89.7358335 -85.00923195 89.76589441 -81.9375 89.8125 C-82.31261719 89.2040625 -82.68773437 88.595625 -83.07421875 87.96875 C-92.55501144 71.72960886 -95.71001303 54.68184361 -92.23828125 36.0625 C-91.34104211 33.15499088 -90.27713215 30.54184401 -88.9375 27.8125 C-88.51339844 26.88695312 -88.08929688 25.96140625 -87.65234375 25.0078125 C-79.59315354 8.79963608 -65.5807267 -1.39118552 -48.79296875 -7.29296875 C-32.16344194 -11.15128855 -14.70452619 -8.42921431 0 0 Z " fill="#E175A8" transform="translate(190.9375,106.1875)"/>
<path d="M0 0 C14.29470648 10.51784423 24.61882619 24.93212137 27.3359375 42.71875 C28.79812671 60.03321004 23.96969626 73.94496376 15.3359375 88.71875 C16.4909375 88.71875 17.6459375 88.71875 18.8359375 88.71875 C31.45406448 90.13405334 44.65348012 99.20493631 52.765625 108.50390625 C62.48096787 120.84716973 66.69444415 132.49020227 66.6484375 148.03125 C66.66455078 149.10826172 66.68066406 150.18527344 66.69726562 151.29492188 C66.70640485 166.38377915 61.08744273 179.59477856 50.60546875 190.4765625 C49.48205078 191.58644531 49.48205078 191.58644531 48.3359375 192.71875 C47.72105469 193.35554687 47.10617187 193.99234375 46.47265625 194.6484375 C40.74251338 200.16998845 33.69195989 203.8176642 26.3359375 206.71875 C25.4985051 207.12579666 24.66107269 207.53284332 23.79826355 207.95222473 C20.4056295 209.27404638 17.99155896 209.85351991 14.3359375 209.71875 C9.0116222 206.55397108 5.0745265 202.18175019 0.87109375 197.68359375 C-0.37433556 196.40761115 -1.62322262 195.13499521 -2.87538147 193.86561584 C-6.15765482 190.52053814 -9.39286839 187.13340875 -12.61962891 183.73486328 C-15.90343449 180.29087206 -19.2268902 176.88567339 -22.54882812 173.47851562 C-26.28443638 169.64501745 -30.01589309 165.80837829 -33.71482849 161.93943787 C-34.27949326 161.35023056 -34.84415802 160.76102325 -35.42593384 160.15396118 C-36.47249649 159.06076086 -37.51671234 157.96530637 -38.55796814 156.86705017 C-41.41771512 153.88354289 -44.3799616 151.22700266 -47.6640625 148.71875 C-47.15359375 148.34998245 -46.643125 147.9812149 -46.1171875 147.60127258 C-39.03095498 142.30402126 -32.87964388 136.20876037 -26.6640625 129.94921875 C-25.53625476 128.82021625 -24.40807418 127.69158609 -23.27954102 126.56330872 C-20.93340539 124.21562028 -18.59063376 121.86464542 -16.25048828 119.51098633 C-13.24839979 116.4917817 -10.2396421 113.4793301 -7.22860718 110.46905041 C-4.90696125 108.14713317 -2.58792529 105.82262435 -0.26977539 103.49721718 C0.83964096 102.38461829 1.94966434 101.27262434 3.06030273 100.16124535 C4.60393714 98.61545021 6.14423936 97.06641325 7.68359375 95.51635742 C8.56023682 94.63590256 9.43687988 93.75544769 10.34008789 92.84831238 C12.37324302 90.88191331 12.37324302 90.88191331 13.3359375 88.71875 C-15.0440625 88.71875 -43.4240625 88.71875 -72.6640625 88.71875 C-72.6846875 74.6525 -72.7053125 60.58625 -72.7265625 46.09375 C-72.7562915 41.65856934 -72.78602051 37.22338867 -72.81665039 32.65380859 C-72.79382324 27.22192383 -72.79382324 27.22192383 -72.77171326 24.67593384 C-72.76479408 22.90451855 -72.77553501 21.13297914 -72.80039978 19.36172485 C-72.99119705 4.39305806 -72.99119705 4.39305806 -69.70413208 0.24610901 C-67.38125862 -1.33782405 -65.30839407 -2.35360929 -62.6640625 -3.28125 C-61.56578125 -3.82394531 -60.4675 -4.36664063 -59.3359375 -4.92578125 C-57.88960938 -5.50392578 -57.88960938 -5.50392578 -56.4140625 -6.09375 C-55.43953125 -6.49207031 -54.465 -6.89039062 -53.4609375 -7.30078125 C-36.11286981 -13.3822966 -15.15738428 -9.86992465 0 0 Z " fill="#EFE90E" transform="translate(388.6640625,107.28125)"/>
<path d="M0 0 C4.64759031 4.068549 9.0020162 8.45775821 13.3828125 12.80859375 C14.64967304 14.06069038 15.91659109 15.31272882 17.18356323 16.56471252 C19.82639348 19.18070226 22.46256463 21.80321157 25.09521484 24.42944336 C28.43620387 27.75958634 31.80186098 31.06354045 35.1742878 34.36180019 C37.79802181 36.93668102 40.40313906 39.52982464 43.00381088 42.12797737 C44.23534476 43.35237685 45.47336334 44.57029587 46.71844864 45.7809124 C58.70369925 57.45936634 67.59270072 70.77020465 68.265625 87.97265625 C68.27084937 89.66927078 68.2655766 91.36594893 68.25 93.0625 C68.25773438 93.90876953 68.26546875 94.75503906 68.2734375 95.62695312 C68.23202589 109.05466787 62.98990174 121.33989794 55 132 C54.58492187 132.59167969 54.16984375 133.18335938 53.7421875 133.79296875 C45.35824144 144.7623832 29.58460998 153.07145163 16 155 C-0.63057253 155.83443946 -15.92279728 153.73058009 -29.57421875 143.52734375 C-32.89025856 139.97509289 -32.13066072 134.95039317 -32.09765625 130.37329102 C-32.09619598 129.6102063 -32.09473572 128.84712158 -32.0932312 128.06091309 C-32.08943131 126.40707818 -32.08332117 124.75324733 -32.07516479 123.09942818 C-32.06238697 120.48074149 -32.05588179 117.86210554 -32.05102539 115.24339294 C-32.0376621 108.73942449 -32.01346235 102.23550433 -31.98962402 95.73156738 C-31.96988626 90.2347179 -31.95424794 84.73788639 -31.94406128 79.24101067 C-31.93758698 76.66353502 -31.92507843 74.08613351 -31.91235352 71.50868225 C-31.90871998 69.92448999 -31.90536837 68.34029705 -31.90234375 66.75610352 C-31.89459427 65.68443184 -31.89459427 65.68443184 -31.88668823 64.59111023 C-31.88630072 60.93119486 -32.12780076 57.5588305 -33 54 C-34.8253125 53.7215625 -34.8253125 53.7215625 -36.6875 53.4375 C-51.74177114 50.01070359 -63.9006033 39.41396606 -71.98681641 26.61523438 C-76.09200968 19.61882023 -80.23425951 10.48948117 -79.8828125 2.25390625 C-77.70744243 -3.30002531 -70.92388255 -6.10609847 -65.796875 -8.48828125 C-43.01670966 -17.63813439 -19.60709883 -15.28919767 0 0 Z " fill="#45C899" transform="translate(348,261)"/>
<path d="M0 0 C6.47921738 5.35227367 12.4185848 11.21887526 18.375 17.13671875 C18.91147156 17.66911478 19.44794312 18.20151081 20.00067139 18.75004005 C22.83868073 21.56730908 25.6734855 24.38775926 28.50585938 27.21069336 C31.40539017 30.09916886 34.31641334 32.97576671 37.23019409 35.84985638 C39.49339438 38.08671565 41.74747651 40.33260339 43.99932861 42.58088112 C45.06748546 43.64421928 46.13896954 44.70422751 47.21405029 45.7605648 C59.66951778 58.01220657 69.1025828 72.05165608 70 90 C70.061875 90.77859375 70.12375 91.5571875 70.1875 92.359375 C70.94347874 108.32942592 64.61199169 124.79335559 54.375 136.875 C43.66775275 147.85679205 28.44162926 155.21483241 13 156 C12.27167969 156.05027344 11.54335937 156.10054687 10.79296875 156.15234375 C0.06939814 156.58544434 -9.81327711 153.93549106 -19.375 149.25 C-20.01646973 148.93933594 -20.65793945 148.62867188 -21.31884766 148.30859375 C-31.16346479 143.20717667 -38.67275429 134.48974061 -46.4296875 126.73828125 C-47.51198367 125.65920534 -48.59435192 124.58020171 -49.67678833 123.50126648 C-51.9291971 121.25480433 -54.17957176 119.00632718 -56.42871094 116.7565918 C-59.30859072 113.87660974 -62.1953307 111.00360932 -65.08381462 108.13226032 C-67.31427745 105.91290961 -69.54018701 103.6890353 -71.76483536 101.46385765 C-72.82774656 100.40212438 -73.89227483 99.34200737 -74.95846176 98.28356361 C-76.44438769 96.80743727 -77.92384176 95.32510735 -79.40185547 93.84106445 C-80.66471878 92.58033867 -80.66471878 92.58033867 -81.95309448 91.29414368 C-83.78876129 89.23675345 -84.94037174 87.52400811 -86 85 C-75.22996062 84.97685172 -64.45992714 84.95907219 -53.68986797 84.94818783 C-48.6891511 84.94296446 -43.68845123 84.93587667 -38.68774414 84.92456055 C-33.86374049 84.91371233 -29.0397532 84.90771904 -24.2157383 84.90512276 C-22.37330683 84.90327201 -20.53087628 84.89965808 -18.68845177 84.89426994 C-16.11218693 84.88703389 -13.53599013 84.88601015 -10.9597168 84.88647461 C-10.19439133 84.88287933 -9.42906586 84.87928406 -8.64054871 84.87557983 C-5.48698522 84.88175079 -3.0152485 84.99491717 0 86 C-0.33 85.01 -0.66 84.02 -1 83 C-1.09618925 80.37371664 -1.1364414 77.77422138 -1.12939453 75.14794922 C-1.13202301 73.95001236 -1.13202301 73.95001236 -1.13470459 72.72787476 C-1.13910788 70.08679027 -1.13619102 67.44577267 -1.1328125 64.8046875 C-1.13348584 62.97291043 -1.13445612 61.14113345 -1.13571167 59.30935669 C-1.13718647 55.47104033 -1.13504057 51.63274725 -1.13037109 47.79443359 C-1.12466589 42.86330762 -1.12795919 37.93223598 -1.13394356 33.00111198 C-1.13754819 29.21973253 -1.13641118 25.43836607 -1.13381577 21.65698624 C-1.13314664 19.83802407 -1.13397441 18.01906075 -1.13629532 16.20009995 C-1.13882111 13.66445514 -1.13498268 11.12889982 -1.12939453 8.59326172 C-1.13141876 7.83480957 -1.13344299 7.07635742 -1.13552856 6.29492188 C-1.1142643 1.1142643 -1.1142643 1.1142643 0 0 Z " fill="#E30117" transform="translate(196,110)"/>
<path d="M0 0 C2.46981438 2.3710218 4.74019145 4.84818739 6.95776367 7.45117188 C11.76751145 12.9635284 16.94495279 18.10921424 22.11328125 23.28125 C23.17472851 24.34591685 24.23610317 25.41065609 25.29740906 26.47546387 C27.50518649 28.68918521 29.71497596 30.90087508 31.92602539 33.11132812 C34.76360682 35.94880702 37.59419227 38.79315935 40.42315388 41.63922882 C42.60469489 43.83184971 44.79072642 46.01994977 46.97807884 48.20677185 C48.02471674 49.25459151 49.06972953 50.30403701 50.11309242 51.3551178 C51.56331428 52.81507862 53.01966289 54.26863683 54.4777832 55.72070312 C55.30494339 56.54928833 56.13210358 57.37787354 56.98432922 58.23156738 C58.80365616 60.21983371 58.80365616 60.21983371 61 60 C58.71709394 77.30919819 50.65485632 92.24327375 36.84375 103.0078125 C25.40786952 111.01921229 13.60432911 114.58371516 -0.25 114.5 C-1.35102051 114.49427979 -2.45204102 114.48855957 -3.58642578 114.48266602 C-17.02394842 114.18847877 -27.12584623 109.90686018 -38 102 C-38.64453125 101.53980469 -39.2890625 101.07960938 -39.953125 100.60546875 C-48.91120316 93.60444821 -55.48477464 82.691637 -59 72 C-59.25086868 71.32141937 -59.50173737 70.64283875 -59.76020813 69.94369507 C-60.49673723 66.97058045 -60.58885781 65.02787253 -60 62 C-56.52896511 56.96121934 -52.1586493 52.92738163 -47.734375 48.73046875 C-46.4596464 47.48136406 -45.18748437 46.22963524 -43.91778564 44.97541809 C-40.57537096 41.68621602 -37.20217812 38.43051885 -33.82049561 35.1817627 C-29.7200048 31.23224654 -25.65297053 27.24835393 -21.58514786 23.26524067 C-18.41952535 20.16562447 -15.24809451 17.0729981 -12.05609131 14.00053406 C-10.90033864 12.88082017 -9.7445967 11.76109521 -8.58886719 10.64135742 C-7.80320122 9.89239952 -7.80320122 9.89239952 -7.00166321 9.12831116 C-4.10797449 6.31303641 -1.90794291 3.56058094 0 0 Z " fill="#6EABDE" transform="translate(256,341)"/>
<path d="M0 0 C14.23365663 0.72374525 29.12757626 7.60911199 39 18 C50.047359 31.03856409 55.36274844 43.33857728 55.3125 60.3125 C55.32861328 61.38951172 55.34472656 62.46652344 55.36132812 63.57617188 C55.37046735 78.66502915 49.75150523 91.87602856 39.26953125 102.7578125 C38.52058594 103.49773437 37.77164063 104.23765625 37 105 C36.38511719 105.63679688 35.77023437 106.27359375 35.13671875 106.9296875 C29.40657588 112.45123845 22.35602239 116.0989142 15 119 C14.1625676 119.40704666 13.32513519 119.81409332 12.46232605 120.23347473 C9.069692 121.55529638 6.65562146 122.13476991 3 122 C-2.3243153 118.83522108 -6.261411 114.46300019 -10.46484375 109.96484375 C-11.71027306 108.68886115 -12.95916012 107.41624521 -14.21131897 106.14686584 C-17.49359232 102.80178814 -20.72880589 99.41465875 -23.95556641 96.01611328 C-27.23937199 92.57212206 -30.5628277 89.16692339 -33.88476562 85.75976562 C-37.62037388 81.92626745 -41.35183059 78.08962829 -45.05076599 74.22068787 C-45.89776314 73.33687691 -45.89776314 73.33687691 -46.76187134 72.43521118 C-47.80843399 71.34201086 -48.85264984 70.24655637 -49.89390564 69.14830017 C-52.75365262 66.16479289 -55.7158991 63.50825266 -59 61 C-58.48953125 60.63123245 -57.9790625 60.2624649 -57.453125 59.88252258 C-50.36689248 54.58527126 -44.21558138 48.49001037 -38 42.23046875 C-36.87219226 41.10146625 -35.74401168 39.97283609 -34.61547852 38.84455872 C-32.26934289 36.49687028 -29.92657126 34.14589542 -27.58642578 31.79223633 C-24.58433729 28.7730317 -21.5755796 25.7605801 -18.56454468 22.75030041 C-16.24289875 20.42838317 -13.92386279 18.10387435 -11.60571289 15.77846718 C-10.49629654 14.66586829 -9.38627316 13.55387434 -8.27563477 12.44249535 C-6.73200036 10.89670021 -5.19169814 9.34766325 -3.65234375 7.79760742 C-2.77570068 6.91715256 -1.89905762 6.03669769 -0.99584961 5.12956238 C1.03730552 3.16316331 1.03730552 3.16316331 2 1 C1.34 0.67 0.68 0.34 0 0 Z " fill="#A2DC50" transform="translate(400,195)"/>
<path d="M0 0 C3.88545482 2.45840965 3.88545482 2.45840965 5.0625 4.8125 C5.15563039 7.49783626 5.18826984 10.15691004 5.17602539 12.84228516 C5.17614593 13.68506201 5.17626646 14.52783886 5.17639065 15.3961544 C5.1756427 18.13131704 5.1680198 20.86641201 5.16015625 23.6015625 C5.15868647 25.28735318 5.15766598 26.97314432 5.15710449 28.65893555 C5.15185583 34.91846398 5.13789469 41.17798265 5.125 47.4375 C5.104375 61.42125 5.08375 75.405 5.0625 89.8125 C-23.6475 89.8125 -52.3575 89.8125 -81.9375 89.8125 C-91.61520558 72.07003977 -96.0048012 56.26283048 -92.23828125 36.0625 C-91.34104211 33.15499088 -90.27713215 30.54184401 -88.9375 27.8125 C-88.51339844 26.88695312 -88.08929688 25.96140625 -87.65234375 25.0078125 C-79.59315354 8.79963608 -65.5807267 -1.39118552 -48.79296875 -7.29296875 C-32.16344194 -11.15128855 -14.70452619 -8.42921431 0 0 Z " fill="#FE7E7B" transform="translate(190.9375,106.1875)"/>
<path d="M0 0 C4.45507325 3.93813311 8.60473483 8.20510272 12.7890625 12.42578125 C13.98495184 13.62219029 15.18136222 14.81807871 16.37826538 16.01347351 C18.86549504 18.50079222 21.34753547 20.99313583 23.82568359 23.48950195 C27.00711642 26.69380581 30.19970708 29.88671628 33.3959446 33.07624531 C35.85834655 35.53531607 38.31575476 37.99932643 40.77155685 40.4649868 C41.94803653 41.64531959 43.12587244 42.82430215 44.30507278 44.00191689 C45.94226197 45.63873715 47.57283014 47.28186886 49.20166016 48.92700195 C50.59537338 50.32762627 50.59537338 50.32762627 52.01724243 51.75654602 C54 54 54 54 54 56 C43.3949001 56.0463488 32.78982432 56.08188219 22.18464375 56.10362434 C17.26018508 56.11405969 12.33579573 56.12821443 7.41137695 56.15087891 C2.6586813 56.17261604 -2.09394769 56.1845705 -6.84668922 56.18975449 C-8.65956484 56.19344867 -10.47243682 56.20066246 -12.28528404 56.21146011 C-14.82527922 56.22598656 -17.36499923 56.22797746 -19.9050293 56.22705078 C-20.65381348 56.23424133 -21.40259766 56.24143188 -22.17407227 56.24884033 C-26.24978719 56.23275977 -29.3196151 55.75412908 -33 54 C-34.32828108 53.7431644 -35.66216059 53.51369851 -37 53.3125 C-51.14118929 50.23526446 -62.98978584 40.17798332 -70.875 28.375 C-75.5469027 20.98038544 -80.26312292 11.16584706 -79.8828125 2.25390625 C-77.70744243 -3.30002531 -70.92388255 -6.10609847 -65.796875 -8.48828125 C-43.03558332 -17.63055362 -19.58399347 -15.30809475 0 0 Z " fill="#01A33F" transform="translate(348,261)"/>
<path d="M0 0 C0.79731033 -0.00175232 1.59462067 -0.00350464 2.41609192 -0.00531006 C5.04149577 -0.00969799 7.66683184 -0.0068022 10.29223633 -0.00341797 C12.11875929 -0.00409169 13.94528216 -0.00506228 15.77180481 -0.00631714 C19.59397233 -0.00778979 23.41611645 -0.00565267 27.23828125 -0.00097656 C32.1445892 0.0047326 37.05084259 0.0014315 41.95714855 -0.00454903 C45.72569696 -0.00815596 49.49423235 -0.00701565 53.26278114 -0.00442123 C55.07254353 -0.00375296 56.88230708 -0.00457693 58.6920681 -0.00690079 C61.21531707 -0.00943077 63.73847648 -0.00558236 66.26171875 0 C67.01343353 -0.00202423 67.76514832 -0.00404846 68.53964233 -0.00613403 C73.70823373 0.01512761 73.70823373 0.01512761 75.93676758 1.12939453 C74.34514434 5.00134352 71.86117905 7.45870294 68.92382812 10.40112305 C68.4146283 10.91382751 67.90542847 11.42653198 67.38079834 11.95477295 C65.70001637 13.64434051 64.0120434 15.32650627 62.32348633 17.00830078 C61.14975713 18.18337774 59.97632493 19.35875142 58.80317688 20.53440857 C56.3441928 22.99633979 53.88163165 25.45462128 51.41650391 27.91040039 C48.26236674 31.05315591 45.11727633 34.20478744 41.97482586 37.35922337 C39.55318121 39.78810834 37.12677657 42.21219312 34.69892311 44.63487053 C33.5376803 45.7947822 32.37791298 46.95617305 31.21967125 48.1190815 C29.59721215 49.74664006 27.96844325 51.36761575 26.33789062 52.98706055 C25.41348679 53.9098732 24.48908295 54.83268585 23.53666687 55.78346252 C21.10287386 57.97951409 18.84983374 59.63863142 15.93676758 61.12939453 C13.99926758 60.96923828 13.99926758 60.96923828 11.93676758 60.12939453 C11.00864258 59.75943359 10.08051758 59.38947266 9.12426758 59.00830078 C8.07239258 58.57388672 7.02051758 58.13947266 5.93676758 57.69189453 C-9.82299366 51.59247911 -24.20991152 52.14164421 -40.06323242 57.12939453 C-41.64976298 57.84947165 -43.21996262 58.60982837 -44.75073242 59.44189453 C-48.06323242 61.12939453 -48.06323242 61.12939453 -50.75073242 61.12939453 C-53.92060186 59.75864018 -55.79528978 58.79756234 -58.06323242 56.12939453 C-58.48884432 42.93542577 -51.30522285 29.4756477 -42.96557617 19.66064453 C-31.87841973 7.92820385 -16.18548287 -0.04393952 0 0 Z " fill="#8BC001" transform="translate(326.063232421875,194.87060546875)"/>
<path d="M0 0 C6.47921738 5.35227367 12.4185848 11.21887526 18.375 17.13671875 C18.91147156 17.66911478 19.44794312 18.20151081 20.00067139 18.75004005 C22.83868073 21.56730908 25.6734855 24.38775926 28.50585938 27.21069336 C31.40539017 30.09916886 34.31641334 32.97576671 37.23019409 35.84985638 C39.49339438 38.08671565 41.74747651 40.33260339 43.99932861 42.58088112 C45.06748546 43.64421928 46.13896954 44.70422751 47.21405029 45.7605648 C59.66951778 58.01220657 69.1025828 72.05165608 70 90 C70.061875 90.77859375 70.12375 91.5571875 70.1875 92.359375 C70.91502286 107.72829547 65.08542442 124.33911532 54.98876953 135.88354492 C53.05665574 137.99655658 51.08769855 140.04028297 49 142 C48.67 142 48.34 142 48 142 C47.78085938 140.91203125 47.56171875 139.8240625 47.3359375 138.703125 C43.50858799 120.60174574 35.93831212 105.41690525 20 95 C13.85928036 91.74520161 7.61604799 89.11951238 1 87 C0.505 87.99 0.505 87.99 0 89 C-0.93999794 84.24574711 -1.14253868 79.63598495 -1.12939453 74.80737305 C-1.13114685 74.00831039 -1.13289917 73.20924774 -1.13470459 72.38597107 C-1.13908415 69.76119782 -1.13620029 67.13649261 -1.1328125 64.51171875 C-1.13348633 62.6842294 -1.13445701 60.85674014 -1.13571167 59.0292511 C-1.13718307 55.20886375 -1.13505075 51.38849985 -1.13037109 47.56811523 C-1.1246539 42.66061651 -1.12796887 37.75317223 -1.13394356 32.84567547 C-1.137547 29.07716965 -1.13641194 25.30867687 -1.13381577 21.54017067 C-1.13314694 19.72958177 -1.13397338 17.9189917 -1.13629532 16.10840416 C-1.13882046 13.58745528 -1.13498417 11.06659643 -1.12939453 8.5456543 C-1.13141876 7.79191528 -1.13344299 7.03817627 -1.13552856 6.26159668 C-1.11426692 1.11426692 -1.11426692 1.11426692 0 0 Z " fill="#FE3400" transform="translate(196,110)"/>
<path d="M0 0 C0.85846537 19.7129086 -5.53413412 34.41867658 -18.7265625 48.89453125 C-22.87948852 52.94683571 -27.63152956 55.61464022 -32.75 58.25 C-33.38099609 58.5795166 -34.01199219 58.9090332 -34.66210938 59.24853516 C-46.68380611 65.14181929 -58.59408631 65.4153919 -71.671875 65.29296875 C-73.44834024 65.28736131 -75.22481017 65.28309665 -77.00128174 65.28010559 C-81.63730067 65.26874704 -86.27302975 65.23935919 -90.90893555 65.20599365 C-95.65539634 65.17509699 -100.40190476 65.16155871 -105.1484375 65.14648438 C-114.43241779 65.11447929 -123.71618463 65.06339414 -133 65 C-131.40837676 61.12805101 -128.92441147 58.67069159 -125.98706055 55.72827148 C-125.47786072 55.21556702 -124.96866089 54.70286255 -124.44403076 54.17462158 C-122.76324879 52.48505402 -121.07527583 50.80288826 -119.38671875 49.12109375 C-118.21298956 47.94601679 -117.03955735 46.77064312 -115.8664093 45.59498596 C-113.40742522 43.13305474 -110.94486407 40.67477325 -108.47973633 38.21899414 C-105.32559916 35.07623862 -102.18050875 31.92460709 -99.03805828 28.77017117 C-96.61641363 26.34128619 -94.19000899 23.91720141 -91.76215553 21.494524 C-90.60091272 20.33461233 -89.4411454 19.17322148 -88.28290367 18.01031303 C-86.66044457 16.38275447 -85.03167567 14.76177878 -83.40112305 13.14233398 C-82.47671921 12.21952133 -81.55231537 11.29670868 -80.59989929 10.34593201 C-78.16108284 8.1453477 -75.92816328 6.47732422 -73 5 C-69.10893306 5.25322817 -65.89722826 6.83778177 -62.375 8.4375 C-46.03018022 15.36802407 -29.33206382 13.99856063 -13.06640625 7.44140625 C-9.30653482 5.67402719 -5.96893719 3.57056216 -2.609375 1.13671875 C-1 0 -1 0 0 0 Z " fill="#9F3174" transform="translate(244,252)"/>
<path d="M0 0 C0.02317604 10.3443463 0.04094196 20.68868642 0.05181217 31.0330534 C0.05702947 35.83641668 0.06410621 40.63976218 0.07543945 45.44311523 C0.08630926 50.07909635 0.09228554 54.71506037 0.09487724 59.35105324 C0.0967241 61.11926352 0.10033053 62.88747288 0.10573006 64.65567589 C0.11299478 67.13334546 0.11398864 69.61094453 0.11352539 72.08862305 C0.11712067 72.81870575 0.12071594 73.54878845 0.12442017 74.30099487 C0.11697941 77.98171581 0.01473843 81.44712594 -1 85 C-2.62304688 86.20678711 -2.62304688 86.20678711 -4.71875 87.02734375 C-5.4821167 87.34131104 -6.2454834 87.65527832 -7.03198242 87.97875977 C-7.84642822 88.29514404 -8.66087402 88.61152832 -9.5 88.9375 C-11.15480493 89.62693454 -12.80719212 90.32220273 -14.45703125 91.0234375 C-15.24803223 91.35956055 -16.0390332 91.69568359 -16.85400391 92.04199219 C-29.35088896 97.6208064 -38.21205663 108.03486754 -43.48046875 120.50390625 C-47.05335963 130.21672106 -49.16364934 138.96326124 -49.4609375 149.30078125 C-50.15709878 152.7866323 -51.11190557 153.94730478 -54 156 C-59.72090999 157.05942778 -65.17600017 156.99803764 -70.3125 154.1875 C-72.87372557 149.34962947 -73.3795383 145.33036266 -72 140 C-70.03183229 137.29214728 -67.82098577 135.07116897 -65.453125 132.70703125 C-56.13287301 122.42210349 -51.10857688 105.41140298 -51.74609375 91.6328125 C-52.83910261 80.29915145 -55.73132327 70.14708111 -61 60 C-52.13902817 50.23682013 -42.93899205 40.82839631 -33.625 31.5 C-32.78065399 30.65190765 -32.78065399 30.65190765 -31.91925049 29.78668213 C-26.29239065 24.13936173 -20.65117997 18.57830249 -14.58251953 13.39990234 C-12.55920979 11.61007543 -10.8296991 9.65463072 -9.125 7.5625 C-7.4453125 5.50390625 -7.4453125 5.50390625 -6 4 C-5.34 4 -4.68 4 -4 4 C-4 3.34 -4 2.68 -4 2 C-1 0 -1 0 0 0 Z " fill="#E9A101" transform="translate(317,111)"/>
<path d="M0 0 C3.40212299 1.61382757 6.10324519 3.58603766 9 6 C8.4946875 6.27972656 7.989375 6.55945313 7.46875 6.84765625 C5.42126548 8.1110842 3.69332848 9.28545186 2 11 C1.41439551 14.71158857 1.41439551 14.71158857 2 18 C0.96875 17.814375 -0.0625 17.62875 -1.125 17.4375 C-4.91556325 17.59454411 -4.91556325 17.59454411 -6.625 19.6171875 C-13.42973698 29.5762036 -18.04701117 40.95149841 -19 53 C-19.05414063 53.65355469 -19.10828125 54.30710937 -19.1640625 54.98046875 C-19.60507108 65.66490388 -16.9605754 76.27962815 -11.890625 85.6328125 C-10.7763864 88.5943414 -11.14185486 89.9816014 -12 93 C-13.21266174 94.81860352 -13.21266174 94.81860352 -14.82250977 96.56640625 C-15.45706085 97.25621582 -16.09161194 97.94602539 -16.74539185 98.65673828 C-21.38413018 103.47787668 -26.09772515 108.21851912 -30.83984375 112.9375 C-31.97349143 114.06927864 -33.10691559 115.2012812 -34.24012756 116.33349609 C-37.19863851 119.28822011 -40.16014181 122.23992653 -43.12231445 125.190979 C-46.15434725 128.21271471 -49.18349067 131.23734394 -52.21289062 134.26171875 C-58.13912967 140.17728805 -64.06853842 146.08966729 -70 152 C-70.66 151.67 -71.32 151.34 -72 151 C-72.02320035 140.42942744 -72.04095429 129.85886096 -72.05181217 119.28826809 C-72.05702417 114.37958818 -72.06409123 109.47092572 -72.07543945 104.56225586 C-72.08632818 99.82252392 -72.09228952 95.08280875 -72.09487724 90.34306526 C-72.09672071 88.53743285 -72.10032052 86.73180132 -72.10573006 84.92617607 C-72.11301994 82.39143792 -72.1139876 79.85676848 -72.11352539 77.32202148 C-72.11712067 76.58042786 -72.12071594 75.83883423 -72.12442017 75.07476807 C-72.1156335 70.60312706 -71.72737999 66.39740305 -71 62 C-70.67 62.66 -70.34 63.32 -70 64 C-50.0589339 56.93623677 -37.31455877 47.11239355 -27.6171875 28.3203125 C-24.00274462 19.72597055 -23.72420042 10.19543951 -23 1 C-22.67 1 -22.34 1 -22 1 C-21.97421875 1.67546875 -21.9484375 2.3509375 -21.921875 3.046875 C-21.86515625 3.93890625 -21.8084375 4.8309375 -21.75 5.75 C-21.70359375 6.63171875 -21.6571875 7.5134375 -21.609375 8.421875 C-20.8137672 11.78790801 -19.80271976 12.98482133 -17 15 C-13.83372754 15.59473005 -13.83372754 15.59473005 -10.4375 15.4375 C-9.30183594 15.43621094 -8.16617188 15.43492187 -6.99609375 15.43359375 C-4.07026643 15.21175702 -4.07026643 15.21175702 -2.140625 13.859375 C-0.50854489 11.19886085 -0.47897486 8.90893247 -0.3125 5.8125 C-0.24675781 4.72582031 -0.18101562 3.63914063 -0.11328125 2.51953125 C-0.07589844 1.68808594 -0.03851563 0.85664063 0 0 Z " fill="#5D53A5" transform="translate(267,251)"/>
<path d="M0 0 C0.66 0 1.32 0 2 0 C6.81972743 8.95364384 10.35108355 17.75093717 11 28 C11.06445312 28.78503906 11.12890625 29.57007813 11.1953125 30.37890625 C11.73676419 42.48937566 8.09448761 54.60939817 2 65 C1.67 64.34 1.34 63.68 1 63 C0.34 63 -0.32 63 -1 63 C-1.79913872 61.16991133 -2.58890755 59.33573034 -3.375 57.5 C-3.81585938 56.4790625 -4.25671875 55.458125 -4.7109375 54.40625 C-7.51013929 47.00957133 -8.36006546 40.53792996 -8.3125 32.6875 C-8.30903564 31.76050293 -8.30557129 30.83350586 -8.30200195 29.87841797 C-8.19607042 23.21233994 -7.48599335 17.23737971 -5 11 C-4.57074219 9.90751953 -4.57074219 9.90751953 -4.1328125 8.79296875 C-3.46363259 7.17737726 -2.73949811 5.58463881 -2 4 C-1.34 4 -0.68 4 0 4 C0 2.68 0 1.36 0 0 Z " fill="#E63502" transform="translate(255,172)"/>
<path d="M0 0 C-2.06837945 13.55937641 -9.81909021 25.93571882 -20.68798828 34.29882812 C-27.96418615 39.51459787 -35.78944103 45 -45 45 C-43.50363192 30.60201936 -34.59153757 19.0439037 -23.6796875 10.09765625 C-17.20949939 5.54069581 -8.05516784 0 0 0 Z " fill="#8D8800" transform="translate(315,197)"/>
<path d="M0 0 C-0.58165735 12.79646179 -9.68101528 24.01969112 -18.5 32.625 C-22.36125694 35.85553369 -26.6576976 38.10584572 -31.125 40.375 C-31.80626953 40.72127441 -32.48753906 41.06754883 -33.18945312 41.42431641 C-37.12212742 43.33417162 -40.60057587 44.52031201 -45 45 C-42.93162055 31.44062359 -35.18090979 19.06428118 -24.31201172 10.70117188 C-17.03581385 5.48540213 -9.21055897 0 0 0 Z " fill="#561E5D" transform="translate(242,270)"/>
<path d="M0 0 C12.29999396 0.55909063 23.17121078 8.95393014 31.41015625 17.5 C38.33310341 25.45156535 43.60914693 34.42635562 45 45 C31.44062359 42.93162055 19.06428118 35.18090979 10.70117188 24.31201172 C5.48540213 17.03581385 0 9.21055897 0 0 Z " fill="#00683A" transform="translate(270,270)"/>
<path d="M0 0 C1.02763355 0.97158081 2.03589441 1.9653501 3 3 C-5.93919117 7.81194759 -14.79269949 11.35471089 -25 12 C-25.73476562 12.05285156 -26.46953125 12.10570312 -27.2265625 12.16015625 C-39.85699615 12.63328324 -50.93437429 8.67986436 -62 3 C-59.8910034 -0.1634949 -59.518289 -0.45486735 -56.1484375 -1.5703125 C-55.37886719 -1.82683594 -54.60929688 -2.08335937 -53.81640625 -2.34765625 C-53.01074219 -2.60417969 -52.20507812 -2.86070312 -51.375 -3.125 C-50.59253906 -3.38925781 -49.81007812 -3.65351563 -49.00390625 -3.92578125 C-33.16680121 -9.09976084 -14.40303106 -9.2396803 0 0 Z " fill="#9F0118" transform="translate(234,254)"/>
<path d="M0 0 C13.55937641 2.06837945 25.93571882 9.81909021 34.29882812 20.68798828 C39.51459787 27.96418615 45 35.78944103 45 45 C33.36849809 43.09319641 23.47314075 37.16068219 15 29 C15 28.34 15 27.68 15 27 C14.34 27 13.68 27 13 27 C6.66702895 19.64609659 0.79781328 9.83969718 0 0 Z " fill="#E60000" transform="translate(197,197)"/>
<path d="M0 0 C1.87109375 1.66015625 1.87109375 1.66015625 3 3 C-14.17232758 11.21172958 -30.65779092 15.31426459 -49.29296875 8.859375 C-53.94480724 6.97824177 -58.07942699 5.17159562 -62 2 C-42.58191219 -9.38945535 -20.23350548 -9.81106669 0 0 Z " fill="#008D08" transform="translate(338,254)"/>
<path d="M0 0 C3.39858474 3.789893 5.18669122 7.51063491 6.6875 12.3125 C6.90172607 12.98039551 7.11595215 13.64829102 7.33666992 14.33642578 C8.7803493 18.96952433 9.74990196 23.16477116 10 28 C10.03867187 28.67804688 10.07734375 29.35609375 10.1171875 30.0546875 C10.46155813 40.8067037 8.70896381 55.56566196 1.33984375 63.87109375 C0.89769531 64.24363281 0.45554687 64.61617188 0 65 C-8.19814939 49.26698192 -11.27645895 33.43145451 -7 16 C-5.03305597 10.49124977 -2.65380927 5.20932932 0 0 Z " fill="#243F76" transform="translate(256,276)"/>
<path d="M0 0 C3.8146295 2.67024065 3.8146295 2.67024065 5 6 C6.4912295 16.84164151 6.4912295 16.84164151 3.3671875 21.36328125 C-1.22718269 24.53991675 -6.66740011 23.74251391 -12 23 C-15.3125 21.1875 -15.3125 21.1875 -17 18 C-17.98686828 13.25572211 -18.11969993 9.07180146 -15.7734375 4.73046875 C-11.39219949 -0.36713282 -6.49364159 -1.66728635 0 0 Z " fill="#FEFEFC" transform="translate(262,244)"/>
<path d="M0 0 C3.40212299 1.61382757 6.10324519 3.58603766 9 6 C8.4946875 6.27972656 7.989375 6.55945313 7.46875 6.84765625 C5.42126548 8.1110842 3.69332848 9.28545186 2 11 C1.41439551 14.71158857 1.41439551 14.71158857 2 18 C0.948125 17.855625 -0.10375 17.71125 -1.1875 17.5625 C-4.91219944 17.59271355 -4.91219944 17.59271355 -6.578125 19.55859375 C-7.81902067 21.33079245 -8.95249113 23.10772592 -10 25 C-12.33524782 22.74259377 -14.18705073 20.7194239 -16 18 C-18.64 18 -21.28 18 -24 18 C-23.67 12.39 -23.34 6.78 -23 1 C-22.67 1 -22.34 1 -22 1 C-21.97421875 1.67546875 -21.9484375 2.3509375 -21.921875 3.046875 C-21.86515625 3.93890625 -21.8084375 4.8309375 -21.75 5.75 C-21.70359375 6.63171875 -21.6571875 7.5134375 -21.609375 8.421875 C-20.8137672 11.78790801 -19.80271976 12.98482133 -17 15 C-13.83372754 15.59473005 -13.83372754 15.59473005 -10.4375 15.4375 C-9.30183594 15.43621094 -8.16617187 15.43492187 -6.99609375 15.43359375 C-4.07026643 15.21175702 -4.07026643 15.21175702 -2.140625 13.859375 C-0.50854489 11.19886085 -0.47897486 8.90893247 -0.3125 5.8125 C-0.24675781 4.72582031 -0.18101562 3.63914063 -0.11328125 2.51953125 C-0.07589844 1.68808594 -0.03851563 0.85664063 0 0 Z " fill="#C79EC9" transform="translate(267,251)"/>
<path d="M0 0 C3.40212299 1.61382757 6.10324519 3.58603766 9 6 C8.4946875 6.27972656 7.989375 6.55945313 7.46875 6.84765625 C5.42126548 8.1110842 3.69332848 9.28545186 2 11 C1.41439551 14.71158857 1.41439551 14.71158857 2 18 C-0.31 17.67 -2.62 17.34 -5 17 C-4.360625 16.4225 -3.72125 15.845 -3.0625 15.25 C-0.00974558 10.43959909 -0.17844882 5.59437046 0 0 Z " fill="#8DD777" transform="translate(267,251)"/>
<path d="M0 0 C3.63 0 7.26 0 11 0 C9.35 2.64 7.7 5.28 6 8 C3.16763009 5.35645475 1.78155733 3.56311466 0 0 Z " fill="#859DD1" transform="translate(251,268)"/>
<path d="M0 0 C2.97 0.33 5.94 0.66 9 1 C3.25 7.875 3.25 7.875 1 9 C0.67 6.03 0.34 3.06 0 0 Z " fill="#FD744B" transform="translate(243,243)"/>
<path d="M0 0 C-0.33 2.64 -0.66 5.28 -1 8 C-3.04119788 6.38405168 -5.04072937 4.7143618 -7 3 C-7 2.34 -7 1.68 -7 1 C-4 0 -4 0 0 0 Z " fill="#DAE025" transform="translate(269,243)"/>
<path d="M0 0 C0.33 0 0.66 0 1 0 C1 2.97 1 5.94 1 9 C-2.465 7.02 -2.465 7.02 -6 5 C-5.195625 4.360625 -4.39125 3.72125 -3.5625 3.0625 C-1.7249496 1.59396498 -1.7249496 1.59396498 0 0 Z " fill="#EC678B" transform="translate(243,252)"/>
<path d="M0 0 C1.68762851 1.6454378 3.3540349 3.31288577 5 5 C5 5.33 5 5.66 5 6 C2.03 6 -0.94 6 -4 6 C-2.68 4.02 -1.36 2.04 0 0 Z " fill="#FDBE12" transform="translate(256,238)"/>
<path d="M0 0 C0.66 0 1.32 0 2 0 C2.33 1.98 2.66 3.96 3 6 C0.69 5.67 -1.62 5.34 -4 5 C-2.71937515 3.2925002 -1.38232443 1.62626404 0 0 Z " fill="#58BFB9" transform="translate(266,263)"/>
</svg>
